<svg width="53" height="22" viewBox="0 0 53 22" fill="none" xmlns="http://www.w3.org/2000/svg">
<path d="M26.5 0V1.5C31 1.5 49.885 3.5 49.885 6.8272C49.885 9.81255 41.4354 11.8309 30.3647 12.2048L32.2662 13.6186C32.7715 13.9944 33.073 14.5945 33.073 15.2241C33.073 15.8538 32.7715 16.4539 32.2664 16.8294L30.9769 17.7882C43.4752 17.0109 53.0002 12.9721 53.0002 8.10626C53.0002 2 35 0 26.5 0Z" fill="#252626"/>
<path d="M31.6528 15.2414C31.6528 15.0433 31.5586 14.8568 31.3994 14.7384L28.0717 12.2711L23.3504 8.77043C23.1599 8.62884 22.9057 8.60696 22.6933 8.71338C22.4812 8.81966 22.3471 9.03653 22.3471 9.27359V12.2051C21.8824 12.1881 21.4226 12.1679 20.9681 12.1448C10.7288 11.6259 3.1274 9.66382 3.1274 6.83463C3.1274 3 22.6933 1.5 26.5 1.5V0C17 0 0 2 0 8.11513C0 12.8378 8.98662 16.7826 20.9681 17.7282C21.4235 17.7641 21.8832 17.7958 22.3471 17.8229V21.2099C22.3471 21.4469 22.4812 21.6637 22.6933 21.77C22.7825 21.8146 22.8794 21.8368 22.9755 21.8368C23.108 21.8368 23.2398 21.7948 23.3504 21.7131L28.4694 17.9174L31.3994 15.7446C31.5586 15.6266 31.6528 15.4401 31.6528 15.2414Z" fill="#252626"/>
</svg>
