<svg width="169" height="163" viewBox="0 0 169 163" fill="none" xmlns="http://www.w3.org/2000/svg">
<path d="M153.437 0C149.439 0.134517 146.499 2.13882 143.808 6.02637C141.47 9.40275 140.973 13.0616 142.959 16.1286C144.631 18.5499 147.845 19.1956 150.419 17.689C154.573 15.1466 161.497 12.4294 164.659 17.689C167.716 23.0562 162.973 37.5168 160.413 41.8752C155.866 50.2825 149.269 56.5914 141.078 59.9408C134.415 62.6715 127.948 64.084 121.455 64.1109C111.631 64.1243 102.616 64.057 92.8704 67.8101C85.3714 70.7694 79.3357 77.3473 78.9177 85.5798C78.7217 89.5884 80.0412 92.5747 80.0412 92.5747L80.9949 91.7138C79.7407 81.8268 85.6327 76.6075 95.6923 74.9933C96.4239 74.9126 97.1293 74.8722 97.8479 74.8319C100.84 74.926 103.57 75.9887 105.909 77.9661C107.515 79.3382 108.822 80.9793 109.828 82.8222C110.285 83.8311 110.729 84.9879 111.173 86.2793C111.173 86.3062 111.187 86.3331 111.2 86.36C117.105 108.071 105.386 127.092 88.742 139.266C74.3713 121.308 64.2595 92.8437 61.7381 74.5628C78.5911 65.4157 97.1163 54.0086 103.426 35.4453C103.426 35.4184 103.452 35.378 103.452 35.3511C114.871 -9.76594 39.7247 5.56901 48.1382 70.8098C48.4125 72.5854 48.7261 74.4687 49.0788 76.4461C33.2187 83.6965 19.044 92.1442 8.87992 105.932C-12.3627 136.737 6.89414 160.344 41.3709 160.196C54.8532 160.089 67.8914 156.188 79.7146 149.664C84.9273 155.26 90.8454 159.483 97.5082 161.595C113.499 166.747 132.207 157.103 142.097 142.844C142.449 142.333 142.214 141.62 141.639 141.431C141.3 141.31 140.908 141.431 140.673 141.714C122.422 163.223 105.033 157.802 91.1981 142.238C99.8859 135.741 107.633 127.832 114.048 119.075C123.153 107.493 132.939 86.6694 124.787 74.8184C126.798 74.4149 128.836 73.8499 130.953 73.0831C151.856 66.0614 168.513 43.6912 168.865 22.1953C169.14 11.7972 164.254 -0.161421 153.397 0.0538068L153.437 0ZM82.432 18.7517C85.6589 15.4291 90.6625 11.9182 94.9084 14.8641C99.2457 17.8773 99.6638 32.5935 61.2678 70.0834C60.1443 52.0985 69.851 31.6922 82.4189 18.7517H82.432ZM65.7227 150.767C27.4443 164.824 8.21364 143.705 28.8422 104.654C28.8422 104.641 28.8552 104.614 28.8683 104.601C35.7401 93.1531 40.4302 86.3869 49.8235 80.2395C53.9257 100.686 62.5089 128.746 76.9058 146.395C73.2347 148.184 69.4722 149.664 65.7227 150.78V150.767Z" fill="#636D46"/>
</svg>
