<svg width="523" height="491" viewBox="0 0 523 491" fill="none" xmlns="http://www.w3.org/2000/svg">
<path d="M475.076 0C462.672 0.406083 453.593 6.45673 445.283 18.1519C438.068 28.3446 436.487 39.3495 442.649 48.5879C447.817 55.8771 457.788 57.8466 465.732 53.2782C478.602 45.6032 500.024 37.4409 509.833 53.2782C519.298 69.4606 504.604 113.013 496.7 126.13C482.615 151.469 462.186 170.474 436.832 180.545C416.2 188.768 396.197 193.052 376.092 193.113C345.651 193.174 317.764 192.951 287.587 204.24C264.361 213.153 245.655 232.99 244.378 257.802C243.75 269.863 247.864 278.878 247.864 278.878L250.823 276.299C246.931 246.513 265.192 230.798 296.322 225.904C298.571 225.681 300.781 225.539 302.99 225.417C312.272 225.701 320.723 228.889 327.938 234.858C332.903 238.98 336.957 243.934 340.058 249.477C341.456 252.543 342.854 255.995 344.233 259.914C344.253 259.995 344.293 260.076 344.314 260.157C362.615 325.577 326.317 382.896 274.778 419.545C230.272 365.455 198.98 279.69 191.177 224.605C243.344 197.032 300.74 162.677 320.277 106.739C320.318 106.638 320.338 106.556 320.358 106.455C355.724 -29.4817 123.02 16.7509 149.063 213.275C149.894 218.615 150.867 224.3 151.981 230.249C102.854 252.076 58.9766 277.558 27.5022 319.06C-38.284 411.87 21.3411 482.975 128.127 482.569C169.857 482.244 210.248 470.509 246.871 450.834C263.023 467.686 281.345 480.397 301.997 486.772C351.529 502.285 409.431 473.229 440.054 430.286C441.149 428.763 440.419 426.611 438.636 426.022C437.562 425.657 436.386 426.022 435.636 426.855C379.132 491.645 325.303 475.341 282.439 428.418C309.333 408.845 333.329 385.008 353.211 358.653C381.382 323.75 411.701 261.03 386.469 225.315C392.691 224.117 399.014 222.412 405.56 220.077C470.292 198.9 521.851 131.53 522.966 66.7601C523.817 35.4308 508.698 -0.588821 475.076 0.0406083V0ZM255.241 56.5065C265.253 46.4763 280.737 35.8978 293.87 44.7707C307.306 53.8467 308.603 98.191 189.718 211.143C186.252 156.951 216.308 95.4905 255.221 56.5065H255.241ZM203.5 454.204C84.979 496.539 25.435 432.905 89.2756 315.263C89.2958 315.202 89.3364 315.161 89.3769 315.1C110.677 280.624 125.168 260.239 154.251 241.701C166.938 303.304 193.508 387.83 238.115 441.007C226.725 446.408 215.072 450.834 203.5 454.204Z" fill="#636D46"/>
<path d="M337.382 45.6236H341.233C342.368 45.6236 342.956 44.9129 342.956 43.9586C342.956 43.0043 342.287 42.2937 341.152 42.2937H337.382V45.6236ZM340.686 46.7403H337.382V51.9788H336.167V41.1973H341.051C343.118 41.1973 344.212 42.2734 344.212 43.9789C344.212 45.4002 343.402 46.3951 341.943 46.6591L344.172 51.9788H342.794L340.706 46.7403H340.686Z" fill="#636D46"/>
<path d="M340.179 57.7046C334.059 57.7046 329.053 52.7098 329.053 46.5576C329.053 40.4055 334.038 35.4106 340.179 35.4106C346.32 35.4106 351.306 40.4055 351.306 46.5576C351.306 52.7098 346.32 57.7046 340.179 57.7046ZM340.179 36.6289C334.707 36.6289 330.249 41.0958 330.249 46.5779C330.249 52.0601 334.707 56.527 340.179 56.527C345.651 56.527 350.11 52.0601 350.11 46.5779C350.11 41.0958 345.651 36.6289 340.179 36.6289Z" fill="#636D46"/>
</svg>
