<svg width="49" height="48" viewBox="0 0 49 48" fill="none" xmlns="http://www.w3.org/2000/svg">
<path d="M26.0797 10.2217C24.0566 10.4156 20.6673 12.005 20.6673 16.4073V20.5633H16.2926V25.4655H20.6673V37.5607H25.9304V25.4655H29.9095L30.5888 20.5633H25.9304V18.004C25.9304 16.7505 25.9677 15.4373 27.4907 14.8702C28.4089 14.527 30.753 14.7135 30.753 14.7135V10.6022C30.753 10.6022 28.1028 10.0277 26.0797 10.2217Z" fill="#F9EFE8"/>
<path d="M24.7135 47.7163C18.3456 47.7163 12.3509 45.239 7.84923 40.7323C3.34759 36.233 0.861618 30.2414 0.861618 23.8767C0.861618 17.512 3.34013 11.5204 7.84923 7.0211C12.3509 2.51434 18.3456 0.0371094 24.7135 0.0371094C31.0815 0.0371094 37.0762 2.51434 41.5779 7.0211C46.0795 11.5204 48.5655 17.512 48.5655 23.8767C48.5655 30.2414 46.087 36.233 41.5779 40.7323C37.0688 45.2316 31.0815 47.7163 24.7135 47.7163ZM24.7135 1.99949C12.642 1.99949 2.82502 11.8114 2.82502 23.8767C2.82502 35.942 12.642 45.7539 24.7135 45.7539C36.7851 45.7539 46.6021 35.942 46.6021 23.8767C46.6021 11.8114 36.7851 1.99949 24.7135 1.99949Z" fill="#F9EFE8"/>
</svg>
