<svg width="48" height="48" viewBox="0 0 48 48" fill="none" xmlns="http://www.w3.org/2000/svg">
<path d="M30.9889 18.6317C31.8959 18.6317 32.6312 17.8968 32.6312 16.9902C32.6312 16.0836 31.8959 15.3486 30.9889 15.3486C30.0818 15.3486 29.3465 16.0836 29.3465 16.9902C29.3465 17.8968 30.0818 18.6317 30.9889 18.6317Z" fill="#F9EFE8"/>
<path d="M23.9938 30.5925C27.622 30.5925 30.5708 27.6527 30.5708 24.0189C30.5708 20.3852 27.6294 17.4453 23.9938 17.4453C20.3581 17.4453 17.4168 20.3852 17.4168 24.0189C17.4168 27.6527 20.3581 30.5925 23.9938 30.5925ZM23.9938 19.7435C26.3528 19.7435 28.264 21.6536 28.2714 24.0189C28.2714 26.3768 26.3603 28.2944 23.9938 28.2944C21.6272 28.2944 19.7161 26.3842 19.7161 24.0189C19.7161 21.6536 21.6272 19.7435 23.9938 19.7435Z" fill="#F9EFE8"/>
<path d="M17.4242 37.1655H30.5783C34.2064 37.1655 37.1553 34.2257 37.1553 30.5919V17.4447C37.1553 13.8184 34.2139 10.8711 30.5783 10.8711H17.4242C13.796 10.8711 10.8472 13.8109 10.8472 17.4447V30.5919C10.8472 34.2182 13.7886 37.1655 17.4242 37.1655ZM13.1466 17.4447C13.1466 15.0869 15.0577 13.1767 17.4242 13.1692H30.5783C32.9373 13.1692 34.8485 15.0794 34.8559 17.4447V30.5919C34.8559 32.9498 32.9448 34.8599 30.5783 34.8674H17.4242C15.0652 34.8674 13.154 32.9572 13.1466 30.5919V17.4447Z" fill="#F9EFE8"/>
<path d="M23.9938 47.9998C17.581 47.9998 11.5564 45.5076 7.02494 40.9785C2.49344 36.4494 0 30.4279 0 24.0185C0 17.609 2.49344 11.5876 7.02494 7.0584C11.5639 2.52926 17.5885 0.0371094 23.9938 0.0371094C30.3991 0.0371094 36.4311 2.52926 40.9626 7.0584C45.4941 11.5876 47.9875 17.609 47.9875 24.0185C47.9875 30.4279 45.4941 36.4494 40.9626 40.9785C36.4311 45.5076 30.4065 47.9998 23.9938 47.9998ZM23.9938 1.99949C11.8476 1.99949 1.9634 11.8785 1.9634 24.0185C1.9634 36.1584 11.8476 46.0374 23.9938 46.0374C36.14 46.0374 46.0242 36.1584 46.0242 24.0185C46.0242 11.8785 36.1474 1.99949 23.9938 1.99949Z" fill="#F9EFE8"/>
</svg>
