<svg width="49" height="48" viewBox="0 0 49 48" fill="none" xmlns="http://www.w3.org/2000/svg">
<path d="M17.9036 19.3174H12.7748V35.4044H17.9036V19.3174Z" fill="#F9EFE8"/>
<path d="M29.6765 18.9149C28.2581 19.1761 26.8172 19.8178 25.6676 21.5712V19.3104H20.8822V35.3974H25.9139V26.4585C25.9139 25.69 26.1528 24.9364 26.6157 24.3171C27.1532 23.5858 28.0192 23.168 28.9225 23.1904C31.4383 23.1904 31.3711 26.1526 31.3711 26.6003V35.3974H36.4028V24.5633C36.4028 19.9819 32.1923 18.4523 29.6765 18.9149Z" fill="#F9EFE8"/>
<path d="M16.1785 17.0838C17.7056 16.6215 18.5686 15.0095 18.1061 13.4831C17.6436 11.9568 16.0307 11.0943 14.5036 11.5565C12.9765 12.0188 12.1134 13.6309 12.576 15.1572C13.0385 16.6835 14.6514 17.5461 16.1785 17.0838Z" fill="#F9EFE8"/>
<path d="M24.4283 47.9998C18.0155 47.9998 11.991 45.5076 7.45948 40.9785C2.92798 36.4494 0.43454 30.4279 0.43454 24.0185C0.43454 17.609 2.92798 11.5876 7.45948 7.0584C11.991 2.52926 18.0155 0.0371094 24.4283 0.0371094C30.8411 0.0371094 36.8657 2.52926 41.3972 7.0584C45.9286 11.5876 48.4221 17.609 48.4221 24.0185C48.4221 30.4279 45.9286 36.4494 41.3972 40.9785C36.8657 45.5076 30.8411 47.9998 24.4283 47.9998ZM24.4283 1.99949C12.2821 1.99949 2.39794 11.8785 2.39794 24.0185C2.39794 36.1584 12.2821 46.0374 24.4283 46.0374C36.5745 46.0374 46.4587 36.1584 46.4587 24.0185C46.4587 11.8785 36.5745 1.99949 24.4283 1.99949Z" fill="#F9EFE8"/>
</svg>
