<svg width="244" height="52" viewBox="0 0 244 52" fill="none" xmlns="http://www.w3.org/2000/svg">
<g clip-path="url(#clip0_737_3561)">
<path d="M3.92681 13.6924C3.50578 13.8083 3.15979 13.9285 2.893 14.0573C2.62621 14.186 2.41361 14.3363 2.25937 14.508C2.10514 14.6797 1.96757 14.8642 1.83835 15.0659C1.6591 15.4093 1.51737 15.8385 1.41732 16.3536C1.31311 16.8687 1.21723 17.3752 1.12969 17.8773C1.03798 18.3795 0.962944 18.8431 0.900415 19.2723C0.837886 19.7015 0.779526 20.0149 0.729503 20.2166L0 19.9161C0 19.4311 0.0125058 18.8731 0.0375173 18.2422C0.0625288 17.6112 0.0833718 16.9545 0.0958775 16.2678C0.108383 15.581 0.120889 14.9028 0.133395 14.229C0.145901 13.5594 0.154238 12.9499 0.154238 12.4048H17.5789C17.5789 12.9499 17.5831 13.5594 17.5998 14.229C17.6123 14.9028 17.6331 15.581 17.6581 16.2678C17.6832 16.9545 17.704 17.6155 17.7165 18.2422C17.729 18.8731 17.7498 19.4311 17.7749 19.9161L17.0078 20.2166C16.9578 20.0149 16.9036 19.7144 16.8536 19.3152C16.8036 18.9161 16.7452 18.4654 16.6827 17.9632C16.6202 17.461 16.5243 16.9545 16.3951 16.4395C16.2658 15.9244 16.0991 15.4651 15.899 15.0659C15.7948 14.9243 15.6614 14.7655 15.4988 14.5938C15.3321 14.4221 15.1111 14.259 14.8277 14.1002C14.5484 13.9414 14.194 13.7998 13.773 13.671C13.352 13.5422 12.8351 13.4478 12.2223 13.392C11.8638 13.3662 11.5845 13.4349 11.3802 13.6066C11.176 13.7783 11.0468 14.0358 10.9967 14.3792C10.8675 15.1217 10.78 16.0875 10.7299 17.2764C10.6799 18.4654 10.6466 19.7659 10.6341 21.1823C10.6216 22.5988 10.6216 24.0366 10.6341 25.496C10.6466 26.9553 10.6549 28.316 10.6549 29.5736C10.6549 31.1488 10.6466 32.7713 10.6341 34.4452C10.6216 36.1192 10.6257 37.6858 10.6549 39.1452C10.6799 40.6045 10.7383 41.8922 10.8258 43.0082C10.9134 44.1241 11.0634 44.8667 11.2677 45.2401C11.4219 45.4977 11.6512 45.6608 11.9555 45.7337C12.2598 45.8067 12.5308 45.841 12.76 45.841L12.7225 46.6136H5.01481V45.841C5.24408 45.841 5.51087 45.8067 5.81935 45.7337C6.12366 45.6608 6.34042 45.4977 6.46965 45.2401C6.67391 44.8667 6.81981 44.1327 6.91152 43.0296C6.99906 41.9265 7.05742 40.6389 7.08243 39.1667C7.10744 37.6944 7.11995 36.1106 7.11995 34.4238V25.5389C7.11995 24.0796 7.11161 22.6503 7.09911 21.2467C7.0866 19.8432 7.05325 18.534 7.00323 17.3194C6.9532 16.1047 6.8615 15.1217 6.73644 14.3792C6.68642 14.0358 6.55719 13.7783 6.35293 13.6066C6.14867 13.4349 5.88188 13.3791 5.54839 13.4349C4.88559 13.4907 4.34367 13.5766 3.92264 13.6924H3.92681Z" fill="#F9EFE8"/>
<path d="M31.1143 13.0702C32.2774 13.7441 33.2778 14.7785 34.1199 16.182C34.9619 17.5856 35.6331 19.3711 36.1291 21.5473C36.6252 23.7234 36.8753 26.3116 36.8753 29.3162C36.8753 32.3207 36.6252 34.896 36.1291 37.128C35.6331 39.3599 34.9619 41.2184 34.1199 42.7078C33.2778 44.1972 32.2732 45.3175 31.1143 46.0772C29.9513 46.8369 28.6966 47.2146 27.3418 47.2146C25.987 47.2146 24.7697 46.8369 23.6067 46.0772C22.4437 45.3175 21.4349 44.1972 20.5803 42.7078C19.7258 41.2184 19.0546 39.3599 18.5711 37.128C18.0875 34.896 17.8416 32.2907 17.8416 29.3162C17.8416 26.3417 18.0833 23.7664 18.5711 21.5902C19.0546 19.4184 19.7216 17.6285 20.5636 16.225C21.4057 14.8214 22.4062 13.7784 23.5692 13.0917C24.7322 12.4049 25.987 12.0615 27.3418 12.0615C28.6966 12.0615 29.9513 12.3963 31.1143 13.0702ZM32.5692 22.9637C32.3524 20.9893 32.0273 19.281 31.5937 17.8345C31.1602 16.3881 30.5849 15.2592 29.8721 14.4437C29.1551 13.6282 28.313 13.2204 27.3459 13.2204C26.3747 13.1904 25.5326 13.5853 24.8198 14.4008C24.1028 15.2163 23.5233 16.3494 23.0773 17.7916C22.6313 19.2381 22.3061 20.9378 22.1019 22.8993C21.8976 24.8609 21.7975 26.9855 21.7975 29.2732C21.7975 31.561 21.8976 33.7586 22.1019 35.7759C22.3061 37.7933 22.6313 39.5616 23.0773 41.0768C23.5233 42.5919 24.0986 43.8023 24.7989 44.7037C25.4993 45.6051 26.3496 46.0557 27.3459 46.0557C28.3422 46.0557 29.1593 45.6179 29.8721 44.7466C30.5849 43.8753 31.1602 42.6778 31.5937 41.1626C32.0273 39.6475 32.3524 37.8705 32.5692 35.8403C32.7859 33.8101 32.8943 31.6468 32.8943 29.3591C32.8943 27.0713 32.7859 24.9381 32.5692 22.9637Z" fill="#F9EFE8"/>
<path d="M44.5372 46.6136L39.3306 22.5773C39.2264 22.118 39.0763 21.4699 38.8721 20.6243C38.6678 19.7788 38.451 18.8989 38.2218 17.9846C37.9925 17.0704 37.7424 16.2163 37.4756 15.4308C37.2088 14.6453 36.9587 14.0659 36.7294 13.6924C36.6002 13.4907 36.3793 13.3577 36.0583 13.2847C35.7373 13.2117 35.4663 13.1645 35.2371 13.1345L35.2746 12.4048H43.124V13.1345C42.9948 13.1345 42.8447 13.1473 42.6655 13.1774C42.4862 13.2074 42.3153 13.2418 42.1486 13.2847C41.9818 13.3276 41.8276 13.3834 41.69 13.4564C41.5483 13.5293 41.4774 13.6238 41.4774 13.7354C41.4024 14.0487 41.4024 14.5208 41.4774 15.1518C41.5525 15.7827 41.6567 16.4781 41.7817 17.2335C41.911 17.9932 42.0569 18.7444 42.2236 19.4869C42.3904 20.2295 42.5238 20.8733 42.6238 21.4184C42.6988 21.7618 42.778 22.1052 42.8531 22.4485C42.9281 22.7919 42.9948 23.1095 43.0448 23.3928C43.2991 24.5088 43.5951 25.8179 43.9244 27.3202C44.2579 28.8225 44.608 30.4063 44.9791 32.0631C45.3501 33.7241 45.7252 35.3895 46.1087 37.0635C46.4922 38.7374 46.8758 40.2783 47.2593 41.6776L44.5413 46.6136H44.5372ZM52.6159 19.0148C52.4367 19.7316 52.2782 20.4054 52.1365 21.0321C51.9948 21.6631 51.8864 22.1781 51.8114 22.5773L46.5631 46.6136L44.533 46.5707C44.7873 45.8839 45.0833 44.9182 45.4126 43.6735C45.7461 42.4287 46.0962 41.0466 46.4672 39.5315C46.8382 38.0163 47.2134 36.4282 47.5969 34.7671C47.9804 33.1061 48.3431 31.5051 48.6891 29.9599C49.0351 28.4147 49.3477 26.9897 49.627 25.6891C49.9063 24.3886 50.1356 23.3499 50.3148 22.5773C50.4441 22.0064 50.6192 21.1952 50.8526 20.1522C51.0819 19.1092 51.2861 18.0576 51.4654 16.9974L52.6159 19.0148ZM56.5594 46.6136L51.3903 22.5773C51.2861 22.118 51.1402 21.4699 50.9485 20.6243C50.7567 19.7788 50.54 18.8989 50.2982 17.9846C50.0564 17.0704 49.8021 16.212 49.5311 15.4093C49.2644 14.611 49.0017 14.0229 48.7475 13.6495C48.6182 13.5079 48.4098 13.392 48.1138 13.3061C47.822 13.2203 47.5469 13.1645 47.2926 13.1345L47.3301 12.4048H55.1796L55.1421 13.1345C55.0379 13.1345 54.9003 13.1473 54.721 13.1774C54.5418 13.2074 54.3625 13.2418 54.1833 13.2847C54.004 13.3276 53.8498 13.3834 53.7248 13.4564C53.5955 13.5293 53.5205 13.6238 53.4955 13.7354C53.4455 14.0487 53.4496 14.5208 53.5163 15.1518C53.5789 15.7827 53.6831 16.4781 53.8206 17.2335C53.9624 17.9932 54.1124 18.7444 54.2792 19.4869C54.4459 20.2295 54.5793 20.8733 54.6794 21.4184C54.7544 21.7618 54.8336 22.1052 54.9086 22.4485C54.9837 22.7919 55.0629 23.1095 55.1379 23.3928C55.3672 24.5088 55.6423 25.8093 55.9633 27.2987C56.2843 28.7881 56.6219 30.3462 56.9762 31.9772C57.3347 33.6083 57.7057 35.2307 58.0851 36.8489C58.4686 38.467 58.8396 39.9908 59.1939 41.4201L56.5511 46.6136H56.5594ZM57.4598 43.6949C57.8058 42.4674 58.1601 41.0939 58.5311 39.5744C58.9021 38.0593 59.2773 36.4712 59.6608 34.8101C60.0443 33.1533 60.407 31.5437 60.753 29.9813C61.099 28.4233 61.4158 26.9897 61.7118 25.6891C62.0036 24.3886 62.2412 23.3499 62.4204 22.5773C62.5205 22.0923 62.6622 21.427 62.8415 20.5814C63.0207 19.7402 63.1916 18.8774 63.3584 18.0061C63.5251 17.1348 63.6585 16.2978 63.7585 15.4952C63.8586 14.6925 63.8753 14.1088 63.7961 13.7354C63.771 13.6238 63.7002 13.5336 63.5835 13.4778C63.4667 13.422 63.3417 13.3662 63.2 13.3061C63.0582 13.2503 62.9123 13.2074 62.7581 13.1774C62.6038 13.1473 62.4621 13.1345 62.337 13.1345V12.4048H67.9646V13.1345C67.7354 13.1645 67.4477 13.2117 67.1017 13.2847C66.7558 13.3577 66.5223 13.495 66.3931 13.6924C66.1638 14.0659 65.922 14.6496 65.6636 15.4522C65.4093 16.2549 65.1592 17.1133 64.9174 18.0276C64.6756 18.9418 64.4589 19.8217 64.2671 20.6673C64.0754 21.5128 63.9295 22.161 63.8252 22.6202L58.6187 46.6136L56.5511 46.5707C56.8053 45.8839 57.1055 44.9268 57.4515 43.6949H57.4598Z" fill="#F9EFE8"/>
<path d="M66.7057 12.4048H72.4501L71.0703 14.1217L70.3824 14.8943L70.42 29.5736C70.42 31.1488 70.4075 32.7713 70.3824 34.4452C70.3574 36.1192 70.3574 37.6773 70.3824 39.1237C70.4075 40.5702 70.4658 41.8407 70.5534 42.9438C70.6409 44.0469 70.8035 44.798 71.0327 45.1972C71.1078 45.3131 71.2245 45.4118 71.3787 45.4977C71.533 45.5835 71.6997 45.6479 71.8748 45.6908C72.054 45.7337 72.2375 45.7638 72.4292 45.7766C72.621 45.7895 72.7669 45.7981 72.8711 45.7981V46.6136H66.7057V45.7981C66.935 45.8281 67.2435 45.7981 67.6228 45.7123C68.0063 45.6264 68.2606 45.4547 68.3899 45.1972C68.5941 44.8238 68.7484 44.0941 68.8484 43.0082C68.9485 41.9222 69.0151 40.6432 69.0402 39.1667C69.0652 37.6944 69.0735 36.1106 69.061 34.4238C69.0485 32.7369 69.0402 31.1059 69.0402 29.5307V24.9165C69.0402 23.2426 69.0277 21.6459 69.0026 20.1307C68.9776 18.6156 68.9193 17.2678 68.8317 16.0961C68.74 14.9243 68.5941 14.1517 68.3899 13.7783C68.2606 13.5508 68.0063 13.3834 67.6228 13.2847C67.2393 13.186 66.935 13.1345 66.7057 13.1345V12.4048ZM72.4501 12.4048L83.5927 39.5744L82.9424 45.6264L82.4839 46.6136L69.2361 14.9372L72.4542 12.4048H72.4501ZM80.533 12.4048H86.469V13.1345C86.2398 13.1645 85.9396 13.2203 85.5686 13.3061C85.1976 13.392 84.9475 13.5508 84.8224 13.7783C84.5932 14.1818 84.4348 14.9586 84.343 16.1175C84.2513 17.2764 84.1971 18.6156 84.1721 20.1307C84.1471 21.6459 84.1388 23.234 84.1513 24.8951C84.1638 26.5562 84.1721 28.1142 84.1721 29.5736V46.6136H82.8298V29.5307C82.8298 28.1271 82.834 26.5905 82.8507 24.9165C82.8632 23.2426 82.8507 21.6459 82.8132 20.1307C82.7757 18.6156 82.709 17.2678 82.6214 16.0961C82.5297 14.9243 82.3838 14.1517 82.1795 13.7783C82.0503 13.5508 81.8044 13.3834 81.4334 13.2847C81.0624 13.186 80.7622 13.1345 80.533 13.1345V12.4048Z" fill="#F9EFE8"/>
<path d="M87.3486 33.7799H88.4199C88.4449 35.6684 88.645 37.3724 89.0118 38.8876C89.3829 40.407 89.8748 41.6861 90.4875 42.7291C91.1003 43.7764 91.8006 44.5533 92.5927 45.0684C93.3847 45.5834 94.2017 45.7852 95.0438 45.6693C95.6816 45.6435 96.2735 45.4504 96.8238 45.0898C97.374 44.7336 97.8451 44.24 98.2411 43.609C98.6371 42.9781 98.9414 42.2441 99.1582 41.3985C99.375 40.553 99.4708 39.6173 99.4458 38.5871C99.3958 37.072 99.0873 35.7757 98.5246 34.7027C97.9618 33.6296 97.274 32.651 96.4569 31.7625C95.6399 30.8741 94.752 30.0542 93.7974 29.2945C92.8386 28.5348 91.959 27.7279 91.1545 26.8694C90.35 26.011 89.6747 25.0538 89.1244 23.9937C88.5741 22.9335 88.2865 21.663 88.2615 20.1736C88.2365 18.8301 88.4157 17.6498 88.7993 16.6325C89.1828 15.6153 89.7122 14.7525 90.3875 14.0357C91.0628 13.319 91.8382 12.7824 92.7052 12.4262C93.5723 12.0699 94.481 11.8896 95.4231 11.8896C96.111 11.8896 96.7321 11.9626 97.2823 12.1043C97.8326 12.2459 98.337 12.4262 98.7955 12.6408C99.2541 12.8554 99.6626 13.0915 100.021 13.349C100.38 13.6065 100.721 13.8211 101.055 13.9928L101.322 12.4906H102.201C102.201 12.5206 102.205 12.8253 102.222 13.4134C102.235 14.0014 102.247 14.7311 102.26 15.6024C102.272 16.4737 102.293 17.4266 102.318 18.4567C102.343 19.4868 102.368 20.4397 102.393 21.311C102.418 22.1823 102.431 22.912 102.431 23.5C102.431 24.0881 102.443 24.41 102.468 24.4658L101.472 24.4229C101.318 22.6201 101.072 21.0106 100.726 19.5941C100.38 18.1777 99.9669 16.9845 99.4792 16.0102C98.9956 15.0358 98.437 14.3019 97.8117 13.7997C97.1865 13.2975 96.4903 13.0485 95.7233 13.0485C95.1355 13.0485 94.5852 13.1687 94.0767 13.4134C93.5639 13.658 93.1179 14.0143 92.7344 14.4864C92.3509 14.9586 92.0466 15.5166 91.8173 16.1604C91.588 16.8042 91.4713 17.4695 91.4713 18.1563C91.4713 19.3881 91.7464 20.4655 92.2925 21.3969C92.8428 22.3283 93.5306 23.1867 94.3601 23.9722C95.1897 24.7577 96.1026 25.5474 97.0989 26.3329C98.0952 27.1184 99.0206 27.9983 99.8752 28.9726C100.73 29.9469 101.451 31.0629 102.039 32.3205C102.626 33.5824 102.943 35.0847 102.997 36.8273C103.047 38.3725 102.868 39.7761 102.46 41.0337C102.051 42.2913 101.476 43.3729 100.738 44.2743C99.9961 45.1757 99.1123 45.8753 98.0785 46.3775C97.0447 46.8797 95.9275 47.1415 94.727 47.1715C93.4514 47.1715 92.3009 46.9483 91.2796 46.5062C90.2583 46.0641 89.3912 45.5276 88.6742 44.8967L88.4074 46.5706H87.4903C87.4903 46.5406 87.482 46.2058 87.4695 45.562C87.457 44.9181 87.4445 44.1241 87.432 43.1798C87.4195 42.2355 87.4111 41.2268 87.4111 40.1538C87.4111 39.0807 87.4028 38.0807 87.3903 37.1492C87.3778 36.2221 87.3653 35.441 87.3528 34.81C87.3402 34.179 87.3319 33.84 87.3319 33.7799H87.3486Z" fill="#F9EFE8"/>
<path d="M172.649 33.8902H173.721C173.746 35.7788 173.946 37.4828 174.313 38.9979C174.684 40.5131 175.176 41.7965 175.788 42.8395C176.401 43.8825 177.102 44.6636 177.894 45.1787C178.686 45.6938 179.503 45.8955 180.345 45.7796C180.982 45.7496 181.574 45.5564 182.125 45.2002C182.675 44.8439 183.146 44.3503 183.542 43.7194C183.938 43.0884 184.242 42.3544 184.459 41.5089C184.676 40.6676 184.772 39.7276 184.747 38.6975C184.697 37.1823 184.388 35.8861 183.825 34.813C183.263 33.74 182.575 32.7614 181.758 31.8729C180.941 30.9844 180.053 30.1646 179.098 29.4049C178.14 28.6452 177.26 27.8382 176.455 26.9798C175.651 26.1213 174.976 25.1642 174.425 24.104C173.875 23.0438 173.587 21.7733 173.562 20.2839C173.537 18.9405 173.717 17.7601 174.1 16.7429C174.484 15.7256 175.013 14.8629 175.688 14.1461C176.364 13.4293 177.139 12.8928 178.006 12.5365C178.873 12.1803 179.782 12 180.724 12C181.412 12 182.033 12.073 182.583 12.2146C183.133 12.3563 183.638 12.5365 184.096 12.7511C184.555 12.9657 184.963 13.2018 185.322 13.4593C185.68 13.7169 186.022 13.9315 186.356 14.1032L186.623 12.6009H187.502C187.502 12.631 187.506 12.94 187.523 13.5237C187.536 14.1118 187.548 14.8414 187.561 15.7128C187.573 16.5841 187.594 17.5369 187.619 18.5671C187.644 19.5972 187.669 20.5501 187.694 21.4214C187.719 22.2927 187.731 23.0224 187.731 23.6104C187.731 24.1984 187.744 24.5203 187.769 24.5761L186.773 24.5332C186.618 22.7305 186.372 21.1209 186.026 19.7045C185.68 18.2881 185.268 17.0948 184.78 16.1205C184.297 15.1462 183.738 14.4122 183.113 13.91C182.487 13.4078 181.791 13.1589 181.024 13.1589C180.436 13.1589 179.886 13.2791 179.378 13.5237C178.865 13.7684 178.419 14.1246 178.035 14.5968C177.652 15.0689 177.347 15.6269 177.118 16.2707C176.889 16.9146 176.772 17.5799 176.772 18.2666C176.772 19.4985 177.047 20.5758 177.593 21.5072C178.144 22.4386 178.831 23.2971 179.661 24.0825C180.491 24.8723 181.404 25.6578 182.4 26.4433C183.396 27.2287 184.322 28.1086 185.176 29.083C186.031 30.0573 186.752 31.1733 187.34 32.4309C187.927 33.6885 188.244 35.1908 188.298 36.9377C188.348 38.4829 188.169 39.8864 187.761 41.144C187.352 42.4059 186.777 43.4833 186.039 44.3846C185.297 45.286 184.413 45.9856 183.379 46.4878C182.346 46.99 181.228 47.2518 180.028 47.2819C178.752 47.2819 177.602 47.0587 176.58 46.6166C175.559 46.1745 174.692 45.638 173.975 45.007L173.708 46.681H172.791C172.791 46.6552 172.783 46.3161 172.77 45.6723C172.758 45.0285 172.745 44.2344 172.733 43.2901C172.72 42.3459 172.712 41.3372 172.712 40.2641C172.712 39.1911 172.704 38.191 172.691 37.2596C172.679 36.3325 172.666 35.5513 172.654 34.9203C172.641 34.2894 172.633 33.946 172.633 33.8902H172.649Z" fill="#F9EFE8"/>
<path d="M199.145 45.3505C199.912 45.3204 200.621 45.2775 201.271 45.2217C201.921 45.1659 202.488 45.1144 202.976 45.0715C203.46 45.0286 203.806 44.9642 204.01 44.8783C204.164 44.7367 204.347 44.3633 204.564 43.7624C204.781 43.1614 204.998 42.5047 205.215 41.7879C205.431 41.0711 205.627 40.3844 205.806 39.7277C205.986 39.071 206.098 38.6418 206.152 38.44L206.882 38.7405C206.857 39.2255 206.819 39.8135 206.765 40.5003C206.715 41.187 206.648 41.9038 206.573 42.6464C206.498 43.3889 206.432 44.1186 206.382 44.8354C206.332 45.5522 206.307 46.196 206.307 46.7669L195.277 46.724H189.495V45.9514C189.724 45.9514 189.991 45.917 190.299 45.8441C190.604 45.7711 190.82 45.6209 190.95 45.3934C191.154 45.02 191.308 44.286 191.408 43.1829C191.508 42.0841 191.575 40.7793 191.6 39.277C191.625 37.7747 191.633 36.1737 191.621 34.4697C191.608 32.7657 191.6 31.1304 191.6 29.5552C191.6 27.9799 191.604 26.3875 191.621 24.6835C191.633 22.9795 191.625 21.3871 191.6 19.8977C191.575 18.4083 191.508 17.1207 191.408 16.0347C191.304 14.9488 191.154 14.2191 190.95 13.8457C190.82 13.6182 190.604 13.468 190.299 13.395C189.995 13.3221 189.724 13.2749 189.495 13.2448V12.5151H205.656C205.656 13.0602 205.661 13.644 205.677 14.2749C205.69 14.9059 205.711 15.5283 205.736 16.142C205.761 16.7558 205.781 17.3653 205.794 17.9662C205.806 18.5671 205.827 19.1122 205.852 19.5973L205.123 19.8977C205.073 19.696 204.981 19.3097 204.856 18.7388C204.727 18.168 204.581 17.5756 204.414 16.9576C204.247 16.3438 204.068 15.7772 203.876 15.2621C203.685 14.7471 203.514 14.4166 203.359 14.2749C203.18 14.1891 202.876 14.1118 202.442 14.0389C202.009 13.9659 201.496 13.9187 200.913 13.8886C200.325 13.8586 199.679 13.8328 198.978 13.8028C198.278 13.7728 197.569 13.7599 196.852 13.7599C196.519 13.7298 196.252 13.8114 196.048 13.9959C195.844 14.1805 195.714 14.4466 195.664 14.79C195.589 15.3909 195.51 16.215 195.435 17.258C195.36 18.301 195.293 19.4771 195.243 20.7776C195.193 22.0782 195.152 23.4774 195.127 24.9625C195.102 26.4519 195.089 27.9671 195.089 29.5123C195.089 31.0574 195.102 32.5898 195.127 34.1049C195.152 35.6201 195.189 37.0365 195.243 38.3542C195.293 39.6719 195.36 40.8565 195.435 41.9167C195.51 42.9769 195.589 43.8053 195.664 44.4062C195.714 44.7496 195.844 45.0071 196.048 45.1788C196.252 45.3505 196.519 45.4363 196.852 45.4363C197.619 45.4106 198.382 45.3805 199.149 45.3505H199.145ZM194.247 28.2246C195.881 28.1945 197.248 28.1602 198.345 28.1173C199.441 28.0744 200.221 27.9413 200.679 27.7095C200.958 27.5979 201.188 27.2674 201.367 26.7223C201.546 26.1815 201.692 25.5849 201.809 24.9411C201.925 24.2972 202.013 23.6877 202.076 23.1169C202.138 22.546 202.196 22.1597 202.246 21.958L202.976 22.0438C202.951 22.9881 202.93 24.0569 202.918 25.2415C202.905 26.4304 202.897 27.6323 202.897 28.847C202.897 30.0617 202.901 31.2635 202.918 32.4524C202.93 33.6413 202.951 34.723 202.976 35.693L202.246 35.7359C202.196 35.5643 202.138 35.1908 202.076 34.62C202.013 34.0491 201.921 33.4396 201.809 32.7958C201.692 32.152 201.546 31.5596 201.367 31.0145C201.188 30.4737 200.958 30.1132 200.679 29.9415C200.221 29.7698 199.441 29.6625 198.345 29.6196C197.248 29.5766 195.881 29.5251 194.247 29.4693V28.2246Z" fill="#F9EFE8"/>
<path d="M217.529 15.4982C217.224 16.743 216.891 18.125 216.532 19.6402C216.174 21.1553 215.811 22.7392 215.44 24.3831C215.069 26.027 214.719 27.6237 214.385 29.1689C214.052 30.7141 213.748 32.1305 213.468 33.4182C213.189 34.7058 212.972 35.7359 212.818 36.5085C212.714 36.9936 212.568 37.6546 212.376 38.4829C212.184 39.3113 212.005 40.187 211.838 41.1012C211.672 42.0154 211.547 42.861 211.455 43.6336C211.363 44.4062 211.372 44.9813 211.476 45.3505C211.526 45.578 211.726 45.7239 212.068 45.7797C212.414 45.8355 212.714 45.8956 212.968 45.9514V46.724H207.149V45.9514C207.403 45.8956 207.703 45.8398 208.049 45.7797C208.395 45.7239 208.641 45.5951 208.795 45.3934C209.025 45.02 209.266 44.4491 209.525 43.6765C209.779 42.9039 210.029 42.0584 210.271 41.1441C210.513 40.2299 210.725 39.35 210.905 38.5044C211.084 37.6631 211.221 37.0107 211.326 36.5515L216.42 12.5151H218.375C218.12 13.2577 217.837 14.2535 217.533 15.4982H217.529ZM212.972 32.2593H221.322V33.5469H212.972V32.2593ZM217.07 13.2019L218.525 12.5151L223.619 36.5085C223.719 36.9678 223.861 37.6245 224.04 38.4829C224.219 39.3414 224.423 40.2213 224.653 41.1227C224.882 42.024 225.124 42.861 225.382 43.6336C225.636 44.4062 225.891 44.9813 226.149 45.3505C226.278 45.578 226.508 45.7239 226.837 45.7797C227.17 45.8355 227.462 45.8956 227.717 45.9514V46.724H219.484L219.521 45.9514C219.65 45.9514 219.8 45.9385 219.98 45.9085C220.159 45.8784 220.338 45.8441 220.517 45.8012C220.697 45.7582 220.851 45.7067 220.976 45.6509C221.105 45.5951 221.18 45.5093 221.205 45.3934C221.305 45.02 221.305 44.4491 221.205 43.6765C221.101 42.9039 220.968 42.0584 220.805 41.1441C220.638 40.2299 220.467 39.3586 220.288 38.5259C220.109 37.6975 219.967 37.0408 219.867 36.5515C219.663 35.5514 219.4 34.2852 219.083 32.7529C218.762 31.2205 218.412 29.5681 218.029 27.7954C217.645 26.0227 217.249 24.2414 216.841 22.4516C216.432 20.6617 216.036 19.0264 215.653 17.537L217.07 13.2019Z" fill="#F9EFE8"/>
<path d="M228.325 33.8902H229.396C229.421 35.7788 229.622 37.4828 229.988 38.9979C230.359 40.5131 230.851 41.7965 231.464 42.8395C232.077 43.8825 232.777 44.6636 233.569 45.1787C234.361 45.6938 235.178 45.8955 236.02 45.7796C236.658 45.7496 237.25 45.5564 237.8 45.2002C238.351 44.8439 238.822 44.3503 239.218 43.7194C239.614 43.0884 239.918 42.3544 240.135 41.5089C240.352 40.6676 240.447 39.7276 240.422 38.6975C240.372 37.1823 240.064 35.8861 239.501 34.813C238.938 33.74 238.251 32.7614 237.434 31.8729C236.616 30.9844 235.729 30.1646 234.774 29.4049C233.815 28.6452 232.936 27.8382 232.131 26.9798C231.327 26.1213 230.651 25.1642 230.101 24.104C229.551 23.0438 229.263 21.7733 229.238 20.2839C229.213 18.9405 229.392 17.7601 229.776 16.7429C230.159 15.7256 230.689 14.8629 231.364 14.1461C232.039 13.4293 232.815 12.8928 233.682 12.5365C234.549 12.1803 235.458 12 236.4 12C237.088 12 237.709 12.073 238.259 12.2146C238.809 12.3563 239.314 12.5365 239.772 12.7511C240.231 12.9657 240.639 13.2018 240.998 13.4593C241.356 13.7169 241.698 13.9315 242.031 14.1032L242.298 12.6009H243.178C243.178 12.631 243.182 12.94 243.199 13.5237C243.211 14.1118 243.224 14.8414 243.236 15.7128C243.249 16.5841 243.27 17.5369 243.295 18.5671C243.32 19.5972 243.345 20.5501 243.37 21.4214C243.395 22.2927 243.407 23.0224 243.407 23.6104C243.407 24.1984 243.42 24.5203 243.445 24.5761L242.448 24.5332C242.294 22.7305 242.048 21.1209 241.702 19.7045C241.356 18.2881 240.943 17.0948 240.456 16.1205C239.972 15.1462 239.414 14.4122 238.788 13.91C238.163 13.4078 237.467 13.1589 236.7 13.1589C236.112 13.1589 235.562 13.2791 235.053 13.5237C234.541 13.7684 234.094 14.1246 233.711 14.5968C233.327 15.0689 233.023 15.6269 232.794 16.2707C232.565 16.9146 232.448 17.5799 232.448 18.2666C232.448 19.4985 232.723 20.5758 233.269 21.5072C233.819 22.4386 234.507 23.2971 235.337 24.0825C236.166 24.8723 237.079 25.6578 238.075 26.4433C239.072 27.2287 239.997 28.1086 240.852 29.083C241.706 30.0573 242.427 31.1733 243.015 32.4309C243.603 33.6885 243.92 35.1908 243.974 36.9377C244.024 38.4829 243.845 39.8864 243.436 41.144C243.028 42.4059 242.452 43.4833 241.715 44.3846C240.973 45.286 240.089 45.9856 239.055 46.4878C238.021 46.99 236.904 47.2518 235.704 47.2819C234.428 47.2819 233.277 47.0587 232.256 46.6166C231.235 46.1745 230.368 45.638 229.651 45.007L229.384 46.681H228.467C228.467 46.6552 228.459 46.3161 228.446 45.6723C228.434 45.0285 228.421 44.2344 228.409 43.2901C228.396 42.3459 228.388 41.3372 228.388 40.2641C228.388 39.1911 228.379 38.191 228.367 37.2596C228.354 36.3325 228.342 35.5513 228.329 34.9203C228.317 34.2894 228.308 33.946 228.308 33.8902H228.325Z" fill="#F9EFE8"/>
<path d="M160.024 0C158.748 0.042922 157.81 0.68246 156.952 1.92291C156.205 3.00025 156.047 4.16773 156.681 5.14635C157.214 5.91894 158.24 6.12497 159.061 5.64424C160.386 4.83302 162.596 3.96599 163.605 5.64424C164.58 7.35683 163.067 11.9709 162.25 13.3616C160.799 16.0442 158.694 18.0573 156.08 19.126C153.954 19.9974 151.891 20.448 149.819 20.4566C146.684 20.4609 143.808 20.4395 140.698 21.637C138.305 22.5813 136.38 24.6801 136.246 27.307C136.184 28.586 136.605 29.5389 136.605 29.5389L136.909 29.2642C136.509 26.1095 138.389 24.4441 141.599 23.929C141.832 23.9033 142.057 23.8904 142.286 23.8775C143.241 23.9076 144.112 24.2466 144.858 24.8776C145.371 25.3154 145.788 25.839 146.109 26.4271C146.255 26.749 146.397 27.1181 146.538 27.5302C146.538 27.5388 146.543 27.5473 146.547 27.5559C148.431 34.4835 144.692 40.5527 139.381 44.4371C134.795 38.7071 131.569 29.6248 130.764 23.7917C136.142 20.873 142.053 17.2332 144.066 11.3099C144.066 11.3014 144.075 11.2885 144.075 11.2799C147.718 -3.11614 123.74 1.77697 126.425 22.5941C126.513 23.1607 126.613 23.7616 126.725 24.3926C121.664 26.7061 117.142 29.4016 113.898 33.8011C107.12 43.6302 113.265 51.163 124.266 51.1158C128.568 51.0815 132.728 49.8367 136.5 47.755C138.164 49.5406 140.052 50.8883 142.178 51.5622C147.28 53.2061 153.25 50.1286 156.405 45.5789C156.518 45.4158 156.443 45.1883 156.26 45.1282C156.151 45.0896 156.026 45.1282 155.951 45.2183C150.128 52.0816 144.579 50.3518 140.165 45.3857C142.937 43.3126 145.409 40.7888 147.455 37.9945C150.361 34.299 153.483 27.6546 150.882 23.8732C151.524 23.7444 152.174 23.5642 152.85 23.3195C159.519 21.079 164.834 13.9411 164.947 7.08213C165.034 3.76426 163.475 -0.0515064 160.011 0.0171688L160.024 0ZM137.368 5.98333C138.397 4.92315 139.994 3.80289 141.349 4.74288C142.732 5.70433 142.866 10.4 130.614 22.3624C130.256 16.6237 133.353 10.1124 137.363 5.98333H137.368ZM132.036 48.107C119.822 52.5923 113.686 45.8536 120.268 33.3933C120.268 33.389 120.272 33.3804 120.276 33.3761C122.469 29.7235 123.966 27.5645 126.963 25.603C128.272 32.1271 131.01 41.0806 135.604 46.712C134.433 47.2829 133.232 47.755 132.036 48.1113V48.107Z" fill="#F9EFE8"/>
<path d="M146.476 1.36908H146.976C147.122 1.36908 147.201 1.27465 147.201 1.14588C147.201 1.01712 147.114 0.922688 146.968 0.922688H146.476V1.36908ZM146.909 1.5193H146.476V2.22322H146.317V0.772461H146.955C147.222 0.772461 147.368 0.918396 147.368 1.14588C147.368 1.33474 147.264 1.4678 147.072 1.50643L147.36 2.21893H147.18L146.909 1.51501V1.5193Z" fill="#F9EFE8"/>
<path d="M146.843 2.98737C146.042 2.98737 145.392 2.31779 145.392 1.49369C145.392 0.669583 146.042 0 146.843 0C147.643 0 148.293 0.669583 148.293 1.49369C148.293 2.31779 147.643 2.98737 146.843 2.98737ZM146.843 0.163104C146.13 0.163104 145.546 0.759719 145.546 1.49369C145.546 2.22765 146.126 2.82856 146.843 2.82856C147.56 2.82856 148.139 2.23194 148.139 1.49369C148.139 0.755427 147.56 0.163104 146.843 0.163104Z" fill="#F9EFE8"/>
</g>
<defs>
<clipPath id="clip0_737_3561">
<rect width="244" height="52" fill="white"/>
</clipPath>
</defs>
</svg>
