<svg width="343" height="53" viewBox="0 0 343 53" fill="none" xmlns="http://www.w3.org/2000/svg">
<g clip-path="url(#clip0_589_14839)">
<path d="M24.4025 11.434C24.3698 10.5122 24.3437 9.59693 24.3241 8.69475C24.3045 7.79257 24.2979 6.97537 24.2979 6.24316H0.209071C0.209071 6.97537 0.202537 7.79257 0.182937 8.69475C0.163336 9.59693 0.15027 10.5122 0.130669 11.434C0.111069 12.3558 0.084935 13.2449 0.0522677 14.0882C0.0196004 14.9316 0 15.6834 0 16.3372L1.00615 16.7425C1.07802 16.4744 1.15642 16.0495 1.24136 15.4742C1.32629 14.8989 1.43736 14.2713 1.5615 13.6045C1.68563 12.9311 1.8163 12.2512 1.96004 11.5582C2.10377 10.8652 2.29324 10.2899 2.54152 9.83228C2.71792 9.56424 2.91392 9.31582 3.12299 9.08047C3.33206 8.85165 3.62607 8.64899 3.99848 8.47247C4.37088 8.3025 4.84783 8.13906 5.4293 7.98215C6.01078 7.82525 6.76213 7.71412 7.67681 7.63566C8.13416 7.55721 8.50656 7.63566 8.7875 7.86448C9.06844 8.09329 9.24484 8.43978 9.31671 8.90395C9.49312 9.9042 9.61725 11.2182 9.68912 12.8526C9.76099 14.487 9.80019 16.2456 9.81979 18.1284C9.83939 20.0113 9.84592 21.9333 9.84592 23.8946V35.8256C9.84592 38.0942 9.82632 40.2189 9.79365 42.1932C9.76099 44.1741 9.67605 45.9 9.55845 47.384C9.43431 48.8615 9.23178 49.8552 8.95084 50.3521C8.77443 50.6986 8.4739 50.9208 8.04922 51.0124C7.62455 51.1104 7.25867 51.1562 6.93853 51.1562V52.1957H17.575L17.6273 51.1562C17.3071 51.1562 16.9413 51.1104 16.5166 51.0124C16.0919 50.9143 15.7783 50.6986 15.5627 50.3521C15.2818 49.8552 15.0792 48.855 14.9551 47.3513C14.8309 45.8542 14.7525 44.1218 14.7199 42.1605C14.6872 40.1992 14.6741 38.0942 14.6937 35.8452C14.7133 33.5963 14.7199 31.4193 14.7199 29.3011C14.7199 27.6079 14.7133 25.7839 14.6937 23.8227C14.6741 21.8614 14.6741 19.9328 14.6937 18.0304C14.7133 16.128 14.7525 14.3759 14.8244 12.7807C14.8963 11.1856 15.0204 9.89112 15.1968 8.89088C15.2687 8.42671 15.4451 8.08022 15.726 7.8514C16.007 7.62259 16.399 7.52453 16.889 7.56375C17.7383 7.6422 18.4505 7.76642 19.032 7.93639C19.6134 8.10637 20.0969 8.3025 20.4889 8.5117C20.8744 8.72744 21.188 8.94318 21.4167 9.17199C21.6453 9.40081 21.8283 9.61654 21.972 9.80613C22.253 10.3422 22.4816 10.9567 22.658 11.6497C22.8344 12.3427 22.9651 13.0226 23.0566 13.696C23.1415 14.3694 23.2264 14.9773 23.2918 15.5134C23.3636 16.0495 23.4355 16.4548 23.5009 16.7229L24.5593 16.3175C24.5266 15.6638 24.5005 14.9185 24.4809 14.0686C24.4613 13.2253 24.4351 12.3362 24.4025 11.4144V11.434Z" fill="#252626"/>
<path d="M47.1585 11.3233C45.9956 9.44044 44.6105 8.04794 43.0032 7.14576C41.396 6.24357 39.6581 5.79248 37.7895 5.79248C35.921 5.79248 34.1831 6.25011 32.5758 7.17844C30.9686 8.10024 29.5835 9.50581 28.4206 11.3886C27.2576 13.2714 26.3364 15.6773 25.67 18.593C24.997 21.5153 24.6638 24.9737 24.6638 28.9681C24.6638 32.9626 24.997 36.4602 25.67 39.4609C26.3429 42.4617 27.2641 44.959 28.4467 46.953C29.6292 48.9535 31.0209 50.4636 32.6281 51.4769C34.2353 52.4968 35.9536 53.0067 37.7895 53.0067C39.6254 53.0067 41.396 52.4968 43.0032 51.4769C44.6105 50.4571 45.9956 48.9469 47.1585 46.953C48.3215 44.959 49.2492 42.4551 49.9352 39.4609C50.6212 36.4602 50.9675 32.9626 50.9675 28.9681C50.9675 24.9737 50.6212 21.4565 49.9352 18.5342C49.2492 15.6119 48.3215 13.2126 47.1585 11.3298V11.3233ZM45.0155 37.7219C44.715 40.4481 44.2642 42.8343 43.6631 44.874C43.062 46.9137 42.2715 48.5154 41.2784 49.6857C40.2919 50.8559 39.1289 51.4443 37.783 51.4443C36.4371 51.4443 35.235 50.8363 34.2615 49.6268C33.288 48.4174 32.4974 46.7895 31.8768 44.7563C31.2561 42.7166 30.8118 40.3435 30.5243 37.6369C30.2434 34.9238 30.0997 32.0146 30.0997 28.9028C30.0997 25.7909 30.2434 22.9732 30.5243 20.3386C30.8053 17.7039 31.2561 15.4223 31.8768 13.4807C32.4909 11.539 33.2945 10.0223 34.2876 8.92397C35.2742 7.82566 36.4371 7.30266 37.783 7.34188C39.1224 7.34188 40.2853 7.89104 41.2784 8.98281C42.265 10.0811 43.062 11.5978 43.6631 13.5395C44.2642 15.4811 44.715 17.7758 45.0155 20.4301C45.3161 23.0843 45.4663 25.9478 45.4663 29.0204C45.4663 32.0931 45.3161 34.9958 45.0155 37.7285V37.7219Z" fill="#252626"/>
<path d="M119.033 6.24354H110.827V7.22418C111.147 7.22418 111.559 7.28955 112.068 7.42684C112.578 7.56413 112.924 7.77987 113.101 8.08714C113.382 8.58399 113.584 9.62346 113.708 11.199C113.832 12.7746 113.917 14.5789 113.976 16.6187C114.028 18.6584 114.048 20.7962 114.028 23.0451C114.009 25.294 114.002 27.3599 114.002 29.2427V39.0948L100.138 6.23701H86.1633V7.21764C86.3397 7.21764 86.5357 7.23725 86.7448 7.27648C86.9538 7.3157 87.1564 7.37454 87.3524 7.44646C87.5484 7.52491 87.7248 7.60336 87.8816 7.67527C88.0384 7.75372 88.1364 7.8714 88.1756 8.02176C88.2801 8.51862 88.2605 9.30966 88.1233 10.3884C87.9796 11.4671 87.7967 12.585 87.568 13.7617C87.3393 14.932 87.0976 16.0891 86.8558 17.2201C86.6076 18.3576 86.4116 19.2468 86.2744 19.9005C86.0261 20.94 85.6994 22.3325 85.2944 24.078C84.8893 25.8301 84.445 27.7521 83.9681 29.8441C83.4911 31.9427 82.988 34.1001 82.4588 36.3294C81.9819 38.343 81.5115 40.2781 81.0476 42.1347C80.7993 41.141 80.5445 40.1212 80.2897 39.0686C79.7605 36.8982 79.2509 34.7146 78.7544 32.5245C78.2578 30.3345 77.7939 28.2424 77.3497 26.2419C76.9054 24.2414 76.5264 22.4959 76.2128 20.9923C76.1083 20.6066 76.0038 20.1882 75.8927 19.724C75.7882 19.2664 75.6836 18.8022 75.5726 18.338C75.4288 17.6058 75.2459 16.7429 75.0172 15.7426C74.7885 14.7424 74.5729 13.7356 74.3835 12.7157C74.1875 11.6959 74.0503 10.7675 73.9588 9.91765C73.8673 9.07431 73.8608 8.44016 73.9327 8.01522C73.9653 7.86486 74.0764 7.73411 74.2528 7.64258C74.4292 7.54452 74.6383 7.47261 74.8866 7.41377C75.1348 7.35493 75.3831 7.30917 75.6248 7.26994C75.8731 7.23072 76.0626 7.2111 76.2063 7.2111L76.2586 6.23047H65.4065L65.3542 7.2111C65.707 7.25033 66.086 7.32878 66.4911 7.43992C66.8961 7.55759 67.1901 7.70796 67.3665 7.89755C67.7193 8.3944 68.0787 9.18545 68.4511 10.2641C68.8235 11.3428 69.1763 12.4935 69.5095 13.7225C69.7905 14.7424 70.0387 15.723 70.2674 16.684C69.9538 18.0635 69.7121 19.1356 69.5356 19.894C69.2874 20.9334 68.9738 22.3259 68.5818 24.0715C68.1963 25.8235 67.7585 27.7325 67.2881 29.8114C66.8177 31.8904 66.3081 34.0413 65.7789 36.2706C65.302 38.2776 64.8316 40.1996 64.3742 42.0498C64.1521 41.1803 63.9365 40.2846 63.7143 39.3563C63.1851 37.1074 62.6624 34.8715 62.1528 32.6422C61.6432 30.4129 61.1532 28.2882 60.6959 26.2746C60.2385 24.2545 59.8335 22.4959 59.4807 20.9988C59.4088 20.6131 59.3239 20.1947 59.2128 19.7305C59.1082 19.2729 59.0037 18.8087 58.8926 18.3446C58.7489 17.6124 58.566 16.7494 58.3373 15.7492C58.1086 14.7489 57.9061 13.7421 57.7297 12.7223C57.5533 11.7024 57.4095 10.7741 57.305 9.92419C57.2005 9.08085 57.2005 8.4467 57.305 8.02176C57.305 7.8714 57.403 7.74065 57.599 7.64912C57.795 7.55106 58.0041 7.47914 58.2328 7.42031C58.4614 7.36147 58.7032 7.3157 58.9449 7.27648C59.1932 7.23725 59.4023 7.21764 59.5787 7.21764V6.23701H48.7266L48.6743 7.21764C48.9945 7.25687 49.3734 7.32224 49.8111 7.42031C50.2489 7.51837 50.5625 7.70142 50.7389 7.96946C51.059 8.46631 51.3988 9.24428 51.7712 10.3034C52.1436 11.3625 52.4833 12.5 52.8035 13.7356C53.1236 14.9646 53.4176 16.1479 53.7051 17.2789C53.986 18.4099 54.2016 19.286 54.3388 19.9005L61.5387 52.183L61.5714 52.1241L64.3416 52.183L71.2997 21.2015L78.1533 52.183L78.1859 52.1241L81.0149 52.183L88.2148 19.9593C88.3585 19.3448 88.5611 18.4688 88.8224 17.3378C89.0903 16.2068 89.3843 15.0235 89.724 13.7944C90.0572 12.5654 90.4035 11.4148 90.7563 10.3361C91.1091 9.2639 91.4423 8.47285 91.7625 7.976C91.9389 7.70796 92.2655 7.52491 92.7425 7.42684C92.8862 7.40069 93.0104 7.37454 93.141 7.35493C93.2456 7.37454 93.3501 7.40069 93.4612 7.42684C93.9904 7.56413 94.3432 7.77987 94.5196 8.08714C94.8005 8.58399 95.0031 9.62346 95.1272 11.199C95.2513 12.7746 95.3297 14.5789 95.3624 16.6187C95.3951 18.6584 95.4147 20.7962 95.4147 23.0451V29.2427C95.4147 31.3543 95.4212 33.5444 95.4408 35.8129C95.4604 38.0815 95.4473 40.2062 95.4147 42.1805C95.382 44.1614 95.2905 45.8808 95.1533 47.3386C95.0096 48.7965 94.8005 49.7772 94.5196 50.2806C94.3432 50.627 93.9904 50.8559 93.4612 50.9735C92.932 51.0912 92.5073 51.1304 92.1937 51.0912V52.1895H100.713V51.0912C100.57 51.0912 100.367 51.0847 100.106 51.0651C99.8378 51.0454 99.583 51.0062 99.3413 50.9474C99.093 50.8885 98.8643 50.8036 98.6553 50.6859C98.4462 50.5682 98.2829 50.4375 98.1783 50.2806C97.8582 49.7445 97.6426 48.7311 97.5184 47.2537C97.3943 45.7762 97.3159 44.0633 97.2832 42.1217C97.2506 40.18 97.2506 38.088 97.2832 35.8391C97.3159 33.5902 97.3355 31.4132 97.3355 29.295L97.2898 13.3499L114.002 52.183H115.858V29.295C115.858 27.3337 115.851 25.2417 115.832 23.0124C115.812 20.7831 115.825 18.6518 115.858 16.6121C115.891 14.5724 115.969 12.7746 116.093 11.2186C116.217 9.66269 116.439 8.61668 116.753 8.07406C116.929 7.7668 117.276 7.55759 117.785 7.43992C118.295 7.32224 118.713 7.25033 119.027 7.2111V6.23047L119.033 6.24354Z" fill="#252626"/>
<path d="M136.294 28.5562C135.112 27.2487 133.831 26.0654 132.459 25.0129C131.081 23.9538 129.82 22.9012 128.676 21.8421C127.527 20.7831 126.579 19.6324 125.821 18.3838C125.063 17.1351 124.684 15.6838 124.684 14.0298C124.684 13.108 124.841 12.2123 125.161 11.3494C125.482 10.4864 125.9 9.73458 126.429 9.10043C126.958 8.46629 127.572 7.98905 128.284 7.65563C128.99 7.32875 129.748 7.16531 130.558 7.16531C131.616 7.16531 132.577 7.50527 133.439 8.1721C134.302 8.84547 135.073 9.83264 135.739 11.1402C136.412 12.4477 136.98 14.0494 137.457 15.9518C137.934 17.8542 138.281 20.0182 138.49 22.4371L139.868 22.4959C139.836 22.4174 139.816 21.986 139.816 21.2015C139.816 20.4169 139.796 19.4298 139.764 18.2596C139.731 17.0893 139.692 15.808 139.659 14.422C139.627 13.036 139.6 11.7612 139.581 10.591C139.561 9.42077 139.548 8.44014 139.529 7.64909C139.509 6.86459 139.502 6.44618 139.502 6.40696H138.287L137.915 8.42706C137.457 8.19825 136.98 7.9106 136.484 7.56411C135.987 7.21761 135.426 6.90381 134.792 6.61616C134.158 6.32851 133.459 6.08662 132.701 5.89703C131.943 5.70744 131.087 5.60938 130.133 5.60938C128.827 5.60938 127.572 5.85126 126.377 6.32851C125.175 6.81229 124.11 7.53142 123.175 8.49244C122.241 9.45346 121.509 10.6171 120.98 11.9835C120.451 13.3498 120.203 14.9319 120.242 16.7363C120.274 18.7368 120.673 20.4431 121.431 21.8683C122.189 23.2935 123.123 24.5748 124.234 25.732C125.344 26.8826 126.56 27.9744 127.886 28.9877C129.212 30.0076 130.434 31.1124 131.564 32.3022C132.695 33.4921 133.648 34.8127 134.419 36.2509C135.197 37.6957 135.622 39.4347 135.687 41.4679C135.72 42.8539 135.589 44.1091 135.288 45.2466C134.988 46.3776 134.563 47.3713 134.021 48.2147C133.472 49.058 132.819 49.7248 132.061 50.2021C131.303 50.6859 130.48 50.9408 129.598 50.98C128.435 51.1369 127.304 50.8624 126.207 50.1759C125.116 49.4829 124.142 48.4369 123.293 47.0314C122.444 45.6323 121.764 43.9129 121.254 41.8732C120.745 39.8335 120.47 37.5519 120.431 35.0153H118.948C118.948 35.0938 118.955 35.5514 118.974 36.4013C118.994 37.2446 119.007 38.2972 119.027 39.5459C119.046 40.7945 119.053 42.1413 119.053 43.5795C119.053 45.0178 119.059 46.3776 119.079 47.6459C119.098 48.9142 119.111 49.9798 119.131 50.8428C119.151 51.7057 119.157 52.1568 119.157 52.196H120.425L120.797 49.9471C121.784 50.7905 122.986 51.5161 124.397 52.111C125.808 52.706 127.396 53.0067 129.16 53.0067C130.819 52.9675 132.361 52.6144 133.792 51.9411C135.223 51.2677 136.445 50.3263 137.47 49.1168C138.496 47.9074 139.287 46.4561 139.855 44.7628C140.417 43.0696 140.665 41.1868 140.593 39.1144C140.522 36.7739 140.084 34.7538 139.267 33.0606C138.457 31.3674 137.457 29.8703 136.275 28.5627L136.294 28.5562Z" fill="#252626"/>
<path d="M250.284 28.4383C249.095 27.1308 247.814 25.9409 246.435 24.8819C245.057 23.8228 243.789 22.7637 242.64 21.6981C241.49 20.639 240.529 19.4818 239.771 18.2266C239.007 16.9714 238.628 15.5201 238.628 13.8595C238.628 12.9312 238.785 12.0356 239.105 11.1661C239.425 10.2966 239.85 9.54474 240.379 8.9106C240.908 8.27646 241.529 7.79268 242.241 7.4658C242.947 7.13892 243.711 6.97548 244.528 6.97548C245.593 6.97548 246.553 7.31543 247.422 7.9888C248.291 8.66217 249.062 9.65588 249.735 10.9699C250.408 12.284 250.983 13.8922 251.46 15.8012C251.937 17.7102 252.283 19.8806 252.498 22.3126L253.877 22.3714C253.844 22.293 253.825 21.8615 253.825 21.0705C253.825 20.2794 253.805 19.2988 253.773 18.122C253.74 16.9453 253.701 15.6639 253.668 14.2779C253.635 12.892 253.603 11.6041 253.59 10.4339C253.57 9.25709 253.557 8.27646 253.537 7.48541C253.518 6.69437 253.511 6.2825 253.511 6.24327H252.289L251.917 8.26992C251.453 8.0411 250.976 7.75345 250.48 7.40042C249.983 7.05393 249.415 6.73359 248.781 6.44594C248.147 6.15829 247.442 5.9164 246.684 5.72027C245.919 5.53068 245.063 5.43262 244.11 5.43262C242.796 5.43262 241.542 5.67451 240.34 6.15829C239.138 6.64207 238.066 7.36773 237.125 8.32876C236.184 9.28978 235.453 10.46 234.923 11.8264C234.394 13.1992 234.146 14.7879 234.179 16.5988C234.211 18.6058 234.61 20.3252 235.374 21.7504C236.132 23.1756 237.073 24.47 238.19 25.6271C239.307 26.7843 240.529 27.8761 241.855 28.8959C243.182 29.9158 244.417 31.0272 245.547 32.2235C246.677 33.4199 247.638 34.7405 248.415 36.1853C249.193 37.6301 249.617 39.3756 249.689 41.4219C249.722 42.8078 249.591 44.0761 249.291 45.2137C248.99 46.3512 248.565 47.3449 248.017 48.1948C247.468 49.0447 246.814 49.7115 246.05 50.1888C245.286 50.6725 244.462 50.934 243.58 50.9733C242.411 51.1302 241.281 50.8556 240.183 50.1626C239.085 49.4696 238.112 48.4171 237.262 47.0115C236.413 45.6059 235.734 43.88 235.217 41.8338C234.701 39.7875 234.427 37.4928 234.394 34.9497H232.905C232.905 35.0282 232.911 35.4923 232.931 36.3357C232.95 37.1855 232.963 38.2381 232.983 39.4868C233.003 40.742 233.009 42.0887 233.009 43.5401C233.009 44.9914 233.016 46.3447 233.035 47.6195C233.055 48.8943 233.068 49.9599 233.088 50.8294C233.107 51.6989 233.114 52.15 233.114 52.1893H234.388L234.76 49.9338C235.753 50.7837 236.955 51.5028 238.373 52.1043C239.791 52.6992 241.385 52.9999 243.156 52.9999C244.822 52.9607 246.37 52.6011 247.801 51.9277C249.232 51.2544 250.467 50.3064 251.492 49.0904C252.518 47.8745 253.315 46.4231 253.884 44.7234C254.452 43.0236 254.7 41.1342 254.628 39.0553C254.557 36.7018 254.112 34.6751 253.302 32.9819C252.485 31.2821 251.486 29.7785 250.303 28.471L250.284 28.4383Z" fill="#252626"/>
<path d="M278.887 42.7883C278.639 43.6774 278.365 44.5992 278.064 45.5668C277.763 46.5278 277.463 47.4169 277.162 48.2276C276.862 49.0382 276.607 49.5416 276.391 49.7312C276.11 49.8489 275.627 49.9339 274.954 49.9927C274.281 50.0515 273.491 50.1169 272.589 50.1954C271.687 50.2738 270.701 50.3327 269.642 50.3719C268.577 50.4111 267.519 50.4503 266.454 50.4896C265.997 50.4896 265.624 50.3719 265.337 50.1431C265.056 49.9077 264.873 49.5612 264.808 49.1036C264.703 48.2929 264.592 47.175 264.487 45.7498C264.383 44.3246 264.291 42.7229 264.22 40.9447C264.148 39.173 264.095 37.2641 264.063 35.2178C264.03 33.1716 264.011 31.1122 264.011 29.0268C264.011 29.0268 264.011 29.0137 264.011 29.0071C265.761 29.066 267.277 29.1248 268.525 29.1706C270.047 29.2294 271.125 29.3732 271.766 29.6021C272.158 29.8309 272.471 30.3147 272.72 31.0469C272.968 31.7791 273.17 32.5832 273.334 33.4461C273.491 34.3156 273.615 35.1328 273.706 35.9043C273.791 36.6757 273.876 37.1791 273.948 37.4079L274.954 37.3491C274.921 36.0416 274.889 34.5837 274.876 32.982C274.856 31.3803 274.85 29.759 274.85 28.1246C274.85 26.4902 274.856 24.8689 274.876 23.2672C274.895 21.6655 274.921 20.2272 274.954 18.9589L273.948 18.8412C273.876 19.1093 273.798 19.6323 273.706 20.4037C273.615 21.1751 273.491 21.9923 273.334 22.8618C273.177 23.7313 272.968 24.5289 272.72 25.2611C272.471 25.9933 272.151 26.4379 271.766 26.5948C271.125 26.902 270.047 27.0851 268.525 27.1439C267.277 27.1897 265.768 27.2289 264.017 27.2681C264.024 25.7907 264.037 24.3262 264.063 22.8945C264.095 20.8875 264.148 19.0112 264.22 17.2526C264.291 15.5005 264.376 13.9184 264.487 12.5063C264.592 11.1008 264.703 9.98938 264.808 9.17872C264.879 8.71455 265.056 8.36152 265.337 8.10656C265.618 7.85813 265.99 7.75353 266.454 7.78622C267.447 7.78622 268.427 7.80583 269.401 7.84506C270.374 7.88428 271.269 7.92351 272.086 7.96273C272.903 8.00196 273.608 8.06733 274.209 8.1654C274.81 8.26346 275.235 8.36806 275.483 8.48574C275.699 8.68186 275.934 9.11988 276.202 9.8194C276.47 10.5124 276.718 11.2773 276.947 12.1075C277.175 12.9378 277.378 13.7354 277.561 14.5068C277.737 15.2783 277.861 15.8013 277.933 16.0693L278.939 15.664C278.907 15.0102 278.874 14.278 278.861 13.4674C278.841 12.6567 278.815 11.8395 278.783 11.0092C278.75 10.179 278.717 9.34216 278.704 8.49227C278.685 7.64239 278.678 6.85135 278.678 6.11914H256.262V7.09977C256.582 7.139 256.954 7.20438 257.379 7.30244C257.804 7.4005 258.104 7.60317 258.281 7.91043C258.562 8.41382 258.777 9.39446 258.921 10.8589C259.065 12.3233 259.15 14.0623 259.189 16.0693C259.221 18.0763 259.235 20.2272 259.215 22.5219C259.195 24.8166 259.189 27.0066 259.189 29.0921C259.189 31.1776 259.195 33.42 259.215 35.7147C259.235 38.0094 259.221 40.1668 259.189 42.1934C259.156 44.22 259.065 45.9721 258.921 47.4561C258.777 48.9402 258.568 49.9339 258.281 50.4373C258.104 50.7445 257.804 50.9472 257.379 51.0453C256.954 51.1433 256.582 51.1891 256.262 51.1891V52.2286H264.285L279.58 52.2874C279.58 51.516 279.612 50.6465 279.684 49.6854C279.756 48.7244 279.841 47.7372 279.952 46.737C280.057 45.7368 280.148 44.7692 280.22 43.8409C280.292 42.9125 280.344 42.128 280.377 41.4677L279.371 41.0624C279.299 41.3304 279.142 41.9123 278.894 42.8014L278.887 42.7883Z" fill="#252626"/>
<path d="M307.092 50.3652C306.739 49.8618 306.386 49.0904 306.027 48.0509C305.674 47.0115 305.335 45.8805 305.021 44.6645C304.701 43.4485 304.42 42.2652 304.172 41.1081C303.923 39.9509 303.727 39.0618 303.59 38.4473L296.527 6.10596L296.279 6.22363C296.292 6.18441 296.305 6.14518 296.318 6.10596H293.607L286.544 38.5061C286.401 39.1206 286.205 40.0032 285.963 41.1407C285.715 42.2783 285.421 43.4681 285.087 44.6972C284.748 45.9328 284.408 47.0703 284.049 48.1098C283.696 49.1493 283.356 49.9207 283.042 50.4241C282.827 50.6921 282.487 50.8686 282.004 50.9471C281.527 51.0255 281.109 51.104 280.756 51.1759V52.2154H288.831V51.1759C288.478 51.0974 288.06 51.0255 287.583 50.9471C287.106 50.8686 286.832 50.679 286.76 50.3718C286.616 49.8684 286.61 49.097 286.734 48.0575C286.858 47.018 287.034 45.8805 287.263 44.6449C287.492 43.4093 287.74 42.2325 288.008 41.1146C288.276 39.9967 288.478 39.1076 288.615 38.4538C288.818 37.447 289.112 36.1134 289.478 34.4594H297.527C297.867 36.0414 298.154 37.4013 298.39 38.5126C298.533 39.1664 298.723 40.0555 298.971 41.1734C299.219 42.2914 299.455 43.4681 299.69 44.7037C299.918 45.9393 300.108 47.0768 300.245 48.1163C300.389 49.1558 300.389 49.9272 300.245 50.4306C300.212 50.5875 300.101 50.6987 299.925 50.7771C299.748 50.8556 299.533 50.9209 299.285 50.9798C299.036 51.0386 298.788 51.0844 298.54 51.1236C298.292 51.1628 298.076 51.1824 297.9 51.1824L297.847 52.2219H309.268V51.1824C308.915 51.104 308.503 51.0321 308.046 50.9536C307.582 50.8752 307.269 50.6856 307.092 50.3783V50.3652ZM289.857 32.7204C290.151 31.4194 290.458 30.0334 290.785 28.5559C291.242 26.4705 291.732 24.3261 292.248 22.1034C292.679 20.2467 293.097 18.4619 293.522 16.723C293.744 17.6186 293.966 18.5404 294.189 19.5014C294.757 21.9138 295.306 24.3131 295.835 26.7058C296.312 28.8436 296.75 30.8441 297.155 32.7204H289.863H289.857Z" fill="#252626"/>
<path d="M327.516 28.4383C326.327 27.1308 325.046 25.9409 323.668 24.8819C322.289 23.8228 321.021 22.7637 319.872 21.6981C318.722 20.639 317.761 19.4818 317.003 18.2266C316.239 16.9714 315.86 15.5201 315.86 13.8595C315.86 12.9312 316.017 12.0356 316.337 11.1661C316.657 10.2966 317.082 9.54474 317.611 8.9106C318.14 8.27646 318.761 7.79268 319.473 7.4658C320.179 7.13892 320.943 6.97548 321.76 6.97548C322.825 6.97548 323.785 7.31543 324.654 7.9888C325.523 8.66217 326.294 9.65588 326.967 10.9699C327.64 12.284 328.215 13.8922 328.692 15.8012C329.169 17.7102 329.515 19.8806 329.731 22.3126L331.109 22.3714C331.076 22.293 331.057 21.8615 331.057 21.0705C331.057 20.2794 331.037 19.2988 331.005 18.122C330.972 16.9453 330.933 15.6639 330.9 14.2779C330.867 12.892 330.835 11.6041 330.822 10.4339C330.802 9.25709 330.789 8.27646 330.769 7.48541C330.75 6.69437 330.743 6.2825 330.743 6.24327H329.521L329.149 8.26992C328.685 8.0411 328.208 7.75345 327.712 7.40042C327.215 7.05393 326.647 6.73359 326.013 6.44594C325.379 6.15829 324.674 5.9164 323.916 5.72027C323.151 5.53068 322.295 5.43262 321.342 5.43262C320.028 5.43262 318.774 5.67451 317.572 6.15829C316.37 6.64207 315.298 7.36773 314.357 8.32876C313.417 9.28978 312.685 10.46 312.156 11.8264C311.626 13.1992 311.378 14.7879 311.411 16.5988C311.443 18.6058 311.842 20.3252 312.606 21.7504C313.364 23.1756 314.305 24.47 315.422 25.6271C316.54 26.7843 317.761 27.8761 319.088 28.8959C320.414 29.9158 321.649 31.0272 322.779 32.2235C323.909 33.4199 324.87 34.7405 325.647 36.1853C326.425 37.6301 326.849 39.3756 326.921 41.4219C326.954 42.8078 326.823 44.0761 326.523 45.2137C326.222 46.3512 325.797 47.3449 325.249 48.1948C324.7 49.0447 324.046 49.7115 323.282 50.1888C322.518 50.6725 321.694 50.934 320.812 50.9733C319.643 51.1302 318.513 50.8556 317.415 50.1626C316.317 49.4696 315.344 48.4171 314.495 47.0115C313.645 45.6059 312.966 43.88 312.45 41.8338C311.933 39.7875 311.659 37.4928 311.626 34.9497H310.137C310.137 35.0282 310.143 35.4923 310.163 36.3357C310.182 37.1855 310.196 38.2381 310.215 39.4868C310.235 40.742 310.241 42.0887 310.241 43.5401C310.241 44.9914 310.248 46.3447 310.267 47.6195C310.287 48.8943 310.3 49.9599 310.32 50.8294C310.339 51.6989 310.346 52.15 310.346 52.1893H311.62L311.992 49.9338C312.985 50.7837 314.187 51.5028 315.605 52.1043C317.023 52.6992 318.617 52.9999 320.388 52.9999C322.054 52.9607 323.602 52.6011 325.033 51.9277C326.464 51.2544 327.699 50.3064 328.724 49.0904C329.75 47.8745 330.547 46.4231 331.116 44.7234C331.684 43.0236 331.932 41.1342 331.86 39.0553C331.789 36.7018 331.344 34.6751 330.534 32.9819C329.717 31.2821 328.718 29.7785 327.535 28.471L327.516 28.4383Z" fill="#252626"/>
<path d="M341.955 1.04601C341.256 0.346491 340.413 0 339.42 0C338.427 0 337.59 0.346491 336.898 1.04601C336.199 1.74553 335.846 2.58887 335.846 3.57605C335.846 4.56322 336.192 5.41964 336.885 6.11916C337.584 6.82521 338.427 7.1717 339.42 7.1717C340.413 7.1717 341.256 6.81868 341.955 6.11916C342.654 5.4131 343.007 4.56975 343.007 3.57605C343.007 2.58234 342.654 1.74553 341.955 1.04601ZM341.595 5.7792C340.994 6.3872 340.269 6.68792 339.413 6.68792C338.557 6.68792 337.832 6.3872 337.231 5.7792C336.636 5.17121 336.336 4.439 336.336 3.58258C336.336 2.72616 336.636 2.00049 337.231 1.39904C337.832 0.791045 338.557 0.490317 339.407 0.490317C340.256 0.490317 340.988 0.791045 341.589 1.39904C342.19 2.00049 342.484 2.72616 342.484 3.58258C342.484 4.439 342.183 5.17121 341.589 5.7792H341.595Z" fill="#252626"/>
<path d="M340.981 5.27605C340.975 5.17145 340.975 5.07339 340.975 4.98186V4.69421C340.975 4.49808 340.903 4.29542 340.759 4.08622C340.615 3.87701 340.393 3.7528 340.086 3.7005C340.328 3.66127 340.517 3.5959 340.655 3.51091C340.909 3.34747 341.04 3.08597 341.04 2.73294C341.04 2.23609 340.837 1.90267 340.432 1.73269C340.204 1.64117 339.844 1.58887 339.361 1.58887H337.982V5.52448H338.675V3.97508H339.224C339.59 3.97508 339.851 4.0143 339.995 4.09929C340.243 4.24312 340.367 4.54384 340.367 5.00147V5.31528L340.38 5.43949C340.38 5.43949 340.38 5.47218 340.387 5.48525C340.393 5.49833 340.387 5.5114 340.393 5.52448H341.04L341.014 5.47872C341.014 5.47872 340.988 5.38065 340.981 5.27605ZM339.955 3.40631C339.805 3.46515 339.59 3.4913 339.296 3.4913H338.668V2.06611H339.263C339.648 2.06611 339.929 2.11187 340.099 2.20994C340.276 2.308 340.36 2.49759 340.36 2.78524C340.36 3.08597 340.223 3.29517 339.955 3.39977V3.40631Z" fill="#252626"/>
<path d="M190.535 18.3968C190.895 18.3968 191.646 18.4884 191.855 18.8152C192.489 19.7763 192.339 25.4836 192.339 29.2165V34.0543L184.459 17.8869H180.016V18.3968C180.376 18.3968 181.094 18.4884 181.31 18.8152C181.911 19.7763 181.82 25.4836 181.82 29.2165C181.82 33.3613 181.937 38.5914 181.31 39.5524C181.166 39.7812 180.774 39.8923 180.428 39.9381C180.069 39.8923 179.69 39.8074 179.507 39.5785C178.755 38.6764 177.854 34.9826 177.527 33.747L173.561 17.8804H171.882L167.89 33.747C167.59 34.9761 166.688 38.6764 165.937 39.5785C165.695 39.8793 165.068 39.9381 164.643 39.9708V40.4807H169.21V39.9708C168.818 39.9381 168.099 39.8793 168.008 39.5785C167.74 38.6764 168.759 34.9826 169.06 33.747C169.21 33.2632 169.36 32.5768 169.569 31.7923H174.136C174.319 32.5441 174.496 33.2044 174.62 33.747C174.953 34.9761 175.972 38.6764 175.704 39.5785C175.613 39.8793 174.77 39.9381 174.352 39.9708V40.4807H184.832V39.9708C184.472 39.9708 183.603 39.8793 183.362 39.5524C182.702 38.5325 182.878 33.394 182.878 29.2427L182.845 21.3061L192.339 40.4807V40.4676L192.345 40.4807H193.423V29.2427C193.423 25.3986 193.214 19.8351 193.907 18.8152C194.116 18.4818 194.841 18.3968 195.2 18.3968V17.8869H190.574L190.542 18.3968H190.535ZM169.778 30.9293C170.38 28.615 171.131 25.6405 171.85 23.0254C172.601 25.6078 173.352 28.5824 173.921 30.9293H169.778Z" fill="#252626"/>
<path d="M201.89 17.8867H195.703V18.3966C196.213 18.3639 196.873 18.4293 197.173 18.9392C197.807 20.1422 197.683 30.1185 197.683 33.7534C197.683 34.9824 197.683 38.6238 197.173 39.526C197.023 39.8267 196.154 39.9444 195.729 39.9771L195.762 40.487H201.89C209.397 40.487 211.083 33.8122 211.083 29.0659C211.083 24.3197 209.404 17.7952 201.89 17.8867ZM201.832 39.8267H200.479V33.7534L200.538 18.547H201.832C207.026 18.5797 207.986 24.2543 207.986 29.0659C207.986 33.8776 207.026 39.7941 201.832 39.8267Z" fill="#252626"/>
</g>
<defs>
<clipPath id="clip0_589_14839">
<rect width="343" height="53" fill="white"/>
</clipPath>
</defs>
</svg>
