<svg width="218" height="159" viewBox="0 0 218 159" fill="none" xmlns="http://www.w3.org/2000/svg">
<g clip-path="url(#clip0_589_5388)">
<path d="M12.5884 46.9426C12.24 46.9952 11.9574 47.0478 11.7339 47.0938C11.5104 47.1464 11.3197 47.2122 11.1685 47.2911C11.0173 47.37 10.8793 47.462 10.7544 47.5672C10.6098 47.7316 10.4915 47.9618 10.3863 48.2642C10.2877 48.5667 10.1956 48.8955 10.1102 49.2374C10.0313 49.5793 9.96556 49.9015 9.91297 50.1974C9.86039 50.4933 9.8078 50.7103 9.74206 50.8549L9.25562 50.6445C9.25562 50.342 9.26876 49.9936 9.28848 49.6056C9.3082 49.2177 9.32135 48.8363 9.3345 48.4483C9.34765 48.0604 9.35422 47.6724 9.36737 47.2779C9.37394 46.8834 9.38051 46.502 9.38051 46.1338H23.2048C23.2048 46.502 23.2048 46.8834 23.2179 47.2779C23.2311 47.6724 23.2442 48.067 23.2639 48.4483C23.2837 48.8363 23.2968 49.2177 23.31 49.6056C23.3231 49.9936 23.3362 50.3355 23.356 50.6445L22.8695 50.8549C22.8301 50.7103 22.7775 50.4933 22.7183 50.1974C22.6592 49.9015 22.5934 49.5925 22.5211 49.2703C22.4488 48.9481 22.3568 48.6259 22.245 48.3102C22.1333 47.9946 22.0084 47.7448 21.8638 47.5672C21.7389 47.4883 21.6074 47.4028 21.4496 47.3239C21.2984 47.245 21.1012 47.1727 20.858 47.1135C20.6148 47.0543 20.319 46.9952 19.9771 46.9491C19.6287 46.8965 19.2146 46.8637 18.7282 46.8439C18.4455 46.8242 18.222 46.8702 18.0577 46.982C17.8933 47.0938 17.7947 47.2713 17.7553 47.5146C17.6501 47.9815 17.5844 48.6193 17.5449 49.4346C17.5055 50.25 17.4792 51.1179 17.466 52.0517C17.4529 52.9854 17.4529 53.9388 17.466 54.912C17.4792 55.8851 17.4792 56.7991 17.4792 57.6539C17.4792 58.7125 17.4792 59.8041 17.466 60.9285C17.4529 62.0529 17.466 63.1181 17.4792 64.111C17.4989 65.1038 17.5449 65.9718 17.6172 66.7017C17.6895 67.4315 17.8079 67.9313 17.9656 68.1943C18.0905 68.3587 18.268 68.4639 18.5112 68.5165C18.7545 68.5691 18.9648 68.5954 19.1489 68.5954L19.116 69.0491H13.4824V68.5954C13.6665 68.5954 13.8768 68.5691 14.1201 68.5165C14.3633 68.4639 14.5342 68.3587 14.6394 68.1943C14.8037 67.951 14.9155 67.4578 14.9878 66.7148C15.0601 65.9718 15.1061 65.1038 15.1258 64.0978C15.1456 63.0918 15.1587 62.02 15.1587 60.8824V54.9448C15.1587 53.9717 15.1587 53.0117 15.1456 52.0648C15.1324 51.1179 15.1127 50.25 15.0667 49.4478C15.0272 48.6456 14.9549 48.0012 14.8563 47.5146C14.8169 47.2713 14.7117 47.0938 14.5342 46.982C14.3633 46.8702 14.1529 46.8242 13.9097 46.8439C13.3641 46.8637 12.9171 46.8965 12.5687 46.9491" fill="#F9EFE8"/>
<path d="M35.5368 53.1558C35.3462 51.8276 35.0504 50.6769 34.656 49.7169C34.2616 48.7503 33.7554 47.9941 33.1506 47.4484C32.5393 46.9026 31.8096 46.6264 30.9616 46.6264C30.1136 46.6264 29.3774 46.9092 28.766 47.4615C28.1547 48.0204 27.6551 48.7897 27.2607 49.7629C26.8663 50.7361 26.577 51.8802 26.393 53.1887C26.2089 54.4972 26.1169 55.9175 26.1169 57.4364C26.1169 58.9553 26.2089 60.4677 26.393 61.8353C26.577 63.203 26.8663 64.3998 27.2607 65.4124C27.6551 66.425 28.1613 67.2338 28.766 67.8321C29.3774 68.4305 30.107 68.733 30.9616 68.733C31.8162 68.733 32.5459 68.4305 33.1506 67.8321C33.762 67.2338 34.2616 66.4184 34.656 65.3926C35.0504 64.3669 35.3462 63.1767 35.5368 61.8156C35.7275 60.4545 35.8261 59.0013 35.8261 57.4627C35.8261 55.9241 35.7275 54.484 35.5368 53.1558ZM33.9526 46.5935C34.8729 47.0407 35.6749 47.7311 36.3454 48.6648C37.0159 49.5985 37.5484 50.7952 37.9428 52.2616C38.3372 53.7213 38.5344 55.4572 38.5344 57.4693C38.5344 59.4814 38.3372 61.1975 37.9428 62.6901C37.5484 64.1828 37.0159 65.4321 36.3454 66.4381C35.6749 67.4442 34.8795 68.1938 33.9526 68.6935C33.0257 69.1932 32.0265 69.4431 30.955 69.4431C29.8835 69.4431 28.9107 69.1932 27.9838 68.6935C27.0569 68.1938 26.2615 67.4442 25.5778 66.4381C24.8942 65.4321 24.3617 64.1828 23.9805 62.6901C23.5926 61.1975 23.402 59.455 23.402 57.4693C23.402 55.4835 23.5926 53.7607 23.9805 52.3076C24.3683 50.8544 24.8942 49.6577 25.5647 48.7108C26.2352 47.764 27.0306 47.067 27.9575 46.6067C28.8844 46.153 29.8835 45.9229 30.955 45.9229C32.0265 45.9229 33.0323 46.1464 33.9526 46.5935Z" fill="#F9EFE8"/>
<path d="M55.1327 67.0762C55.3957 66.2543 55.6783 65.3337 55.9676 64.3211C56.2634 63.3085 56.5592 62.2367 56.8681 61.1255C57.1705 60.0076 57.4598 58.9359 57.7358 57.9101C58.0119 56.8843 58.2552 55.9375 58.4852 55.0629C58.7087 54.1884 58.8928 53.4914 59.0308 52.9588C59.1097 52.6366 59.2281 52.1895 59.3792 51.6371C59.5304 51.0782 59.6751 50.493 59.8065 49.8684C59.938 49.2503 60.0432 48.6782 60.1286 48.1456C60.2075 47.6196 60.2272 47.2316 60.1878 46.9883C60.1681 46.9094 60.1155 46.8437 60.0366 46.8042C59.9577 46.7648 59.8657 46.7253 59.7605 46.699C59.6619 46.6661 59.5502 46.6464 59.4384 46.6201C59.3267 46.6004 59.2215 46.5872 59.1163 46.5872V46.127H63.3168V46.5872C63.113 46.5872 62.883 46.6201 62.6332 46.6793C62.3768 46.7385 62.1993 46.8437 62.1007 46.9818C61.9167 47.225 61.726 47.613 61.5222 48.139C61.3185 48.6651 61.1212 49.2437 60.9306 49.8618C60.74 50.4799 60.5625 51.0782 60.4113 51.6569C60.2601 52.2355 60.1418 52.6761 60.0629 52.9851L55.8887 69.0357H54.3965C54.62 68.5491 54.8632 67.8916 55.1261 67.0696M54.3965 69.0423L50.2222 52.9588C50.1434 52.6563 50.025 52.2158 49.8738 51.6371C49.7226 51.0585 49.5517 50.4667 49.3545 49.8552C49.1639 49.2437 48.9601 48.6716 48.7629 48.1325C48.5591 47.5933 48.3685 47.2053 48.1844 46.962C48.0661 46.8371 47.882 46.745 47.652 46.6859C47.4219 46.6267 47.1984 46.5938 46.9946 46.5938L47.0275 46.1335H52.6282L52.5953 46.5938C52.5164 46.5938 52.4047 46.607 52.2732 46.6267C52.1417 46.6464 52.0168 46.6727 51.9051 46.7056C51.7933 46.7385 51.6947 46.7713 51.6158 46.8108C51.5369 46.8502 51.4844 46.9094 51.4646 46.9949C51.4055 47.2185 51.4055 47.5735 51.4778 48.0601C51.5501 48.5467 51.6421 49.0727 51.767 49.6316C51.8919 50.1906 52.0234 50.7363 52.1812 51.2755C52.3324 51.8147 52.4507 52.2421 52.5296 52.5709C52.5887 52.7747 52.6479 52.9785 52.6939 53.1824C52.7465 53.3862 52.7991 53.5966 52.8582 53.8202C53.0423 54.5895 53.2724 55.5101 53.5616 56.5753C53.8443 57.6405 54.1401 58.7517 54.4425 59.909C54.7449 61.0663 55.0604 62.217 55.3891 63.3479C55.7112 64.4855 56.0201 65.5113 56.3028 66.4252L54.3833 69.0423H54.3965ZM51.1425 50.618C51.0176 51.1045 50.9059 51.5582 50.7941 51.9725C50.6824 52.3867 50.5969 52.7221 50.5378 52.9654L46.3372 69.0488H44.9042C45.0883 68.5623 45.3118 67.9047 45.5879 67.0696C45.8639 66.2346 46.14 65.314 46.4227 64.2948C46.7054 63.2822 47.0012 62.217 47.3036 61.1123C47.6059 60.0076 47.9018 58.9359 48.1844 57.8969C48.4671 56.858 48.7235 55.9112 48.947 55.0498C49.1705 54.1884 49.3545 53.4914 49.4926 52.9654C49.5912 52.5972 49.7292 52.0711 49.9067 51.3807C50.0776 50.6903 50.2485 49.9999 50.4063 49.3094L51.136 50.618H51.1425ZM44.8976 69.0423L40.6971 52.9588C40.6182 52.6563 40.4999 52.2158 40.3487 51.6371C40.1975 51.0585 40.0266 50.4667 39.8294 49.8552C39.6388 49.2437 39.435 48.6782 39.218 48.1522C39.0011 47.6261 38.8039 47.2382 38.6264 46.9949C38.5278 46.8502 38.3503 46.7516 38.1071 46.6924C37.8639 46.6333 37.6535 46.6004 37.4695 46.6004L37.5023 46.1401H43.0767V46.6004C42.9979 46.6004 42.8927 46.6135 42.7744 46.6333C42.6495 46.653 42.5311 46.6793 42.4062 46.7122C42.2813 46.745 42.1827 46.7779 42.1039 46.8174C42.025 46.8568 41.9724 46.916 41.9527 47.0015C41.8935 47.225 41.8935 47.5801 41.9658 48.0667C42.0381 48.5533 42.1367 49.0793 42.2682 49.6382C42.3997 50.1971 42.5311 50.7429 42.6626 51.2821C42.7941 51.8213 42.8993 52.2487 42.9847 52.5774C43.0439 52.7813 43.103 52.9851 43.149 53.1889C43.2016 53.3928 43.2542 53.6032 43.32 53.8268C43.5435 54.5961 43.7933 55.5166 44.0628 56.5819C44.3389 57.6471 44.6281 58.7583 44.9436 59.9156C45.2592 61.0729 45.5747 62.2236 45.9034 63.3743C46.2255 64.5184 46.541 65.5507 46.85 66.4647L44.9042 69.0554L44.8976 69.0423Z" fill="#F9EFE8"/>
<path d="M73.2824 46.1398H77.7261V46.6001C77.5421 46.6001 77.3186 46.6264 77.0556 46.679C76.7927 46.7316 76.6086 46.8368 76.51 47.0012C76.326 47.2642 76.2011 47.7903 76.1288 48.5727C76.0564 49.3552 76.0104 50.256 75.9907 51.2818C75.971 52.3076 75.9644 53.3859 75.9776 54.5103C75.9841 55.6347 75.9907 56.6868 75.9907 57.66V69.0486H75.0178V57.6271C75.0178 56.6737 75.0178 55.6347 75.031 54.5038C75.0375 53.3794 75.031 52.2944 74.9981 51.2621C74.9652 50.2232 74.9192 49.3158 74.8469 48.5333C74.7746 47.7508 74.6563 47.2379 74.4985 46.9946C74.3933 46.8303 74.2158 46.7251 73.9529 46.6725C73.69 46.6199 73.4665 46.5935 73.2824 46.5935V46.1333V46.1398ZM66.7614 46.1398L75.4385 64.4458L75.1033 68.1017L75.0113 69.0486L64.5658 47.547L66.7614 46.1464V46.1398ZM62.5017 46.1398H66.7614L65.7228 47.1722L65.1772 47.5667L65.2363 57.6468C65.2363 58.7055 65.2232 59.797 65.2035 60.9214C65.1837 62.0458 65.1837 63.111 65.2035 64.1039C65.2232 65.0968 65.2692 65.9647 65.3415 66.6946C65.4138 67.4244 65.5387 67.9242 65.7228 68.1872C65.7819 68.2661 65.8674 68.3319 65.966 68.3845C66.0646 68.4371 66.1829 68.4765 66.3144 68.5094C66.4459 68.5423 66.5773 68.562 66.7088 68.5686C66.8403 68.5817 66.9455 68.5817 67.0309 68.5817V69.042H62.4951V68.5817C62.6792 68.5817 62.9027 68.5554 63.1656 68.5028C63.4286 68.4502 63.6126 68.345 63.7112 68.1806C63.8756 67.9373 63.9939 67.4376 64.0794 66.688C64.1583 65.9384 64.2108 65.0639 64.2306 64.071C64.2503 63.0781 64.2569 62.0129 64.2437 60.8753C64.2306 59.7378 64.2306 58.6529 64.2306 57.6139C64.2306 56.6605 64.2306 55.6216 64.2437 54.4906C64.2569 53.3662 64.2437 52.2879 64.2306 51.2621C64.2108 50.2363 64.1583 49.3289 64.0794 48.5333C64.0005 47.7442 63.8756 47.2248 63.7112 46.9815C63.6324 46.8171 63.4549 46.7119 63.1788 46.6593C62.9027 46.6067 62.6792 46.5804 62.4951 46.5804V46.1201L62.5017 46.1398Z" fill="#F9EFE8"/>
<path d="M78.4229 60.8163L79.1526 60.7835C79.1723 62.0394 79.3367 63.1638 79.6391 64.1501C79.9414 65.1364 80.3359 65.9583 80.8289 66.6159C81.3153 67.2734 81.8741 67.7666 82.5051 68.0953C83.1362 68.4175 83.7936 68.5753 84.4838 68.5556C85.0294 68.5359 85.5421 68.4109 86.0089 68.1742C86.4756 67.9441 86.8832 67.6219 87.225 67.2142C87.5668 66.8065 87.8363 66.3134 88.0335 65.7348C88.2242 65.1561 88.3228 64.5117 88.3228 63.8016C88.3228 62.8087 88.0993 61.9407 87.6523 61.1977C87.2053 60.4547 86.6399 59.784 85.9628 59.1725C85.2792 58.561 84.5495 57.9889 83.7673 57.4497C82.985 56.9106 82.2553 56.3451 81.5717 55.7467C80.888 55.1483 80.3161 54.4908 79.8494 53.7675C79.3827 53.0442 79.1395 52.196 79.1197 51.2228C79.1 50.3088 79.2512 49.5198 79.5733 48.8491C79.8954 48.1784 80.3227 47.6129 80.8552 47.1592C81.3811 46.7055 81.9858 46.3636 82.6695 46.14C83.3466 45.9165 84.0434 45.8047 84.7533 45.8047C85.2989 45.8047 85.7854 45.8639 86.1995 45.9691C86.6136 46.0809 86.9949 46.2058 87.3433 46.3504C87.6851 46.4951 88.0007 46.6398 88.2702 46.791C88.5463 46.9422 88.8158 47.0737 89.0787 47.1724L89.322 46.1663L89.9925 46.1335C89.9925 46.1335 90.0056 46.357 90.0253 46.745C90.045 47.1329 90.0582 47.6129 90.0713 48.1916C90.0845 48.7702 90.1042 49.3883 90.1305 50.0524C90.1634 50.7099 90.1831 51.328 90.1897 51.8935C90.2028 52.4656 90.2094 52.9456 90.2225 53.3401C90.2291 53.7346 90.2488 53.945 90.2686 53.9648L89.5652 53.9319C89.4206 52.6957 89.2168 51.6108 88.9407 50.6902C88.6646 49.7697 88.3359 48.9872 87.9481 48.3625C87.5602 47.7313 87.1198 47.2644 86.6202 46.962C86.1206 46.6595 85.5816 46.5017 84.99 46.5017C84.4838 46.5017 84.0039 46.5806 83.5569 46.745C83.1099 46.9094 82.7221 47.1461 82.3868 47.4617C82.0516 47.7773 81.782 48.1455 81.5783 48.5729C81.3745 49.0003 81.2759 49.4738 81.2759 50.0064C81.2759 50.8415 81.4994 51.5647 81.9464 52.1828C82.3934 52.8009 82.9587 53.3796 83.6358 53.9187C84.3129 54.4579 85.0623 54.9905 85.8708 55.5166C86.6794 56.0426 87.4353 56.641 88.1256 57.2985C88.8158 57.956 89.4008 58.7122 89.8939 59.567C90.3803 60.4218 90.6432 61.4344 90.6827 62.6114C90.7221 63.6438 90.5775 64.5775 90.2554 65.3994C89.9333 66.2213 89.4731 66.9249 88.8881 67.5035C88.2965 68.0822 87.5997 68.5359 86.7845 68.8581C85.9694 69.1803 85.1017 69.3578 84.1683 69.3775C83.2151 69.3973 82.3408 69.2658 81.552 68.983C80.7631 68.7003 80.0926 68.3452 79.5404 67.9178L79.2381 69.0159H78.5676C78.5676 69.0159 78.5347 68.7792 78.5347 68.3583C78.5347 67.9375 78.5215 67.4378 78.5018 66.8328C78.4821 66.2345 78.469 65.5901 78.4558 64.8997C78.4427 64.2093 78.4361 63.5649 78.4229 62.9665C78.4098 62.3681 78.4098 61.8684 78.4098 61.4739V60.8163H78.4229Z" fill="#F9EFE8"/>
<path d="M8.67527e-07 86.4736L0.72967 86.4407C0.74939 87.6966 0.91373 88.821 1.21612 89.8073C1.5185 90.7936 1.91292 91.6155 2.40594 92.2731C2.89238 92.9306 3.45114 93.4238 4.0822 93.7526C4.71327 94.0748 5.37063 94.2326 6.06085 94.2128C6.60646 94.1931 7.1192 94.0682 7.58593 93.8315C8.05265 93.6013 8.46021 93.2791 8.80204 92.8715C9.14387 92.4638 9.41338 91.9706 9.61059 91.392C9.80123 90.8134 9.89983 90.169 9.89983 89.4588C9.89983 88.4659 9.67633 87.598 9.22932 86.8549C8.78232 86.1119 8.21699 85.4412 7.53991 84.8297C6.86283 84.2182 6.12659 83.6461 5.3509 83.107C4.56865 82.5678 3.83898 82.0023 3.15532 81.4039C2.47167 80.8056 1.89977 80.148 1.43304 79.4247C0.966319 78.7014 0.723096 77.8532 0.703375 76.8801C0.683654 75.9661 0.834847 75.177 1.16353 74.5063C1.48563 73.8356 1.91292 73.2702 2.44538 72.8164C2.97126 72.3627 3.57603 72.0208 4.25969 71.7973C4.93677 71.5737 5.63357 71.4619 6.34352 71.4619C6.88912 71.4619 7.37557 71.5145 7.78971 71.6263C8.20384 71.7381 8.58511 71.863 8.93351 72.0077C9.27534 72.1523 9.59087 72.297 9.86039 72.4482C10.1365 72.5995 10.406 72.731 10.6689 72.8296L10.9122 71.8236L11.5827 71.7907C11.5827 71.7907 11.5958 72.0142 11.6155 72.4022C11.6353 72.7901 11.6484 73.2702 11.6616 73.8488C11.6747 74.4274 11.6944 75.0455 11.7207 75.7096C11.7536 76.3672 11.7733 76.9853 11.7799 77.5507C11.793 78.1228 11.7996 78.6028 11.8127 78.9973C11.8193 79.3919 11.839 79.6023 11.8588 79.622L11.1554 79.5891C11.0108 78.3529 10.807 77.268 10.5309 76.3474C10.2548 75.4269 9.92612 74.6444 9.53828 74.0197C9.15044 73.3885 8.71001 72.9217 8.21042 72.6192C7.71082 72.3167 7.17179 72.1655 6.58017 72.1655C6.074 72.1655 5.59413 72.2444 5.14712 72.4088C4.70012 72.5732 4.31228 72.8099 3.97702 73.1255C3.64177 73.4411 3.37225 73.8093 3.16847 74.2367C2.96469 74.6641 2.86609 75.1376 2.86609 75.6702C2.86609 76.5053 3.08959 77.2285 3.53659 77.8466C3.9836 78.4647 4.54893 79.0434 5.22601 79.5825C5.90309 80.1217 6.65248 80.6543 7.46103 81.1804C8.26958 81.7064 9.02554 82.3048 9.71577 82.9623C10.406 83.6198 10.9976 84.376 11.4841 85.2308C11.9705 86.0856 12.2335 87.0982 12.2729 88.2752C12.3123 89.3076 12.1677 90.2413 11.8456 91.0632C11.5235 91.8851 11.0634 92.5887 10.4783 93.1673C9.88668 93.746 9.18988 94.1997 8.37476 94.5219C7.55963 94.8441 6.69192 95.0216 5.75847 95.0413C4.8053 95.0611 3.93101 94.9296 3.14218 94.6468C2.35335 94.3641 1.68284 94.009 1.13066 93.5816L0.828273 94.6797H0.151193C0.151193 94.6797 0.118326 94.443 0.118326 94.0222C0.118326 93.6013 0.105178 93.095 0.0854576 92.4967C0.0657368 91.8983 0.0525896 91.2539 0.0394424 90.5635C0.0262952 89.8731 0.0197216 89.2287 0.00657446 88.6303C-0.00657272 88.0319 -0.00657272 87.5322 -0.00657272 87.1377V86.4802L8.67527e-07 86.4736Z" fill="#F9EFE8"/>
<path d="M16.5654 82.3574C17.867 82.3377 18.9845 82.3048 19.9311 82.2654C20.8777 82.2259 21.5285 82.1339 21.8966 81.9892C22.1004 81.9103 22.2648 81.6933 22.3962 81.3317C22.5277 80.9766 22.6329 80.5887 22.7183 80.1613C22.7972 79.7339 22.8695 79.3328 22.9287 78.958C22.9878 78.5832 23.0404 78.3267 23.0799 78.1821L23.5663 78.2412C23.5466 78.8725 23.5335 79.576 23.5203 80.3585C23.5072 81.141 23.5072 81.93 23.5072 82.7322C23.5072 83.5344 23.5072 84.3235 23.5203 85.106C23.5335 85.8884 23.5466 86.6052 23.5663 87.2561L23.0799 87.289C23.0404 87.1641 22.9944 86.9142 22.9418 86.5262C22.8892 86.1383 22.8169 85.7372 22.7315 85.3229C22.6394 84.9087 22.5277 84.5208 22.3962 84.1657C22.2648 83.8106 22.0938 83.5805 21.8966 83.4818C21.5285 83.3569 20.8777 83.278 19.9311 83.2385C18.9845 83.1991 17.867 83.1596 16.5654 83.1136V82.3509V82.3574ZM20.5227 93.8578C21.1735 93.8513 21.7783 93.825 22.3502 93.7987C22.9155 93.7658 23.4086 93.7395 23.8095 93.7066C24.2171 93.6737 24.4998 93.6211 24.6641 93.5422C24.789 93.4633 24.9271 93.2266 25.0914 92.8452C25.2557 92.4573 25.4135 92.0299 25.5647 91.563C25.7159 91.0962 25.8539 90.649 25.9788 90.2216C26.1037 89.7942 26.1826 89.5115 26.2221 89.3668L26.7414 89.5772C26.7216 89.8994 26.6888 90.2808 26.6493 90.7214C26.6099 91.1553 26.5573 91.6156 26.4981 92.0891C26.439 92.5691 26.3864 93.0359 26.347 93.4896C26.3075 93.9499 26.2878 94.3576 26.2878 94.7258L17.3937 94.6929H13.2852V94.2326C13.4693 94.2326 13.6796 94.2129 13.9229 94.1735C14.1661 94.134 14.337 94.0288 14.4422 93.871C14.6065 93.6277 14.7183 93.128 14.7906 92.3784C14.8629 91.6288 14.9089 90.7477 14.9418 89.7416C14.9746 88.7356 14.9812 87.6638 14.9746 86.5131C14.9615 85.369 14.9615 84.2643 14.9615 83.2057C14.9615 82.147 14.9615 81.0818 14.9746 79.9443C14.9878 78.8067 14.9746 77.7349 14.9418 76.7289C14.9089 75.7229 14.8629 74.8483 14.7906 74.0922C14.7183 73.3426 14.5999 72.8428 14.4422 72.5995C14.337 72.4351 14.1661 72.3365 13.9229 72.2971C13.6796 72.2576 13.4693 72.2379 13.2852 72.2379V71.7842H25.7093C25.7093 72.1524 25.7093 72.5206 25.7225 72.8954C25.7356 73.2702 25.7488 73.645 25.7685 74.0198C25.7882 74.3946 25.8013 74.7694 25.8145 75.1311C25.8276 75.4993 25.8408 75.8346 25.8605 76.1371L25.3741 76.3475C25.3346 76.2094 25.2689 75.9661 25.1769 75.6308C25.0848 75.2954 24.9862 74.9404 24.8745 74.5656C24.7627 74.1908 24.6378 73.8423 24.5063 73.5135C24.3749 73.1913 24.25 72.9875 24.1251 72.902C23.9805 72.8428 23.7307 72.7902 23.3625 72.7508C22.9944 72.7113 22.5606 72.6784 22.0544 72.6587C21.5482 72.639 20.996 72.6258 20.3913 72.6127C19.7931 72.5995 19.208 72.5995 18.6427 72.5995C18.3798 72.5798 18.1628 72.6324 18.0051 72.7508C17.8407 72.8757 17.7421 73.0467 17.7027 73.2702C17.6435 73.6779 17.5778 74.2237 17.5186 74.9141C17.4595 75.6045 17.4069 76.387 17.3674 77.2615C17.328 78.136 17.2951 79.0763 17.2754 80.0823C17.2557 81.0884 17.2425 82.1076 17.2425 83.1465C17.2425 84.1854 17.2557 85.2112 17.2754 86.2238C17.2951 87.2364 17.328 88.1964 17.3674 89.0841C17.4069 89.9783 17.4595 90.7805 17.5186 91.4907C17.5778 92.2008 17.6435 92.7729 17.7027 93.1937C17.7421 93.437 17.8473 93.6145 18.0051 93.7263C18.1694 93.8381 18.3798 93.8907 18.6427 93.8907C19.254 93.871 19.8785 93.8578 20.5293 93.8447" fill="#F9EFE8"/>
<path d="M34.7414 72.4946L35.7472 71.791L39.7965 87.8745C39.8754 88.1769 39.9872 88.6241 40.1318 89.2027C40.2698 89.7813 40.4342 90.3797 40.6182 90.9978C40.8023 91.6159 40.9929 92.1879 41.1967 92.7205C41.4005 93.2466 41.6043 93.6345 41.808 93.8778C41.9066 94.0225 42.0907 94.1145 42.3536 94.154C42.6166 94.1934 42.8532 94.2263 43.0504 94.246V94.6998H37.1408V94.246C37.2394 94.246 37.3577 94.246 37.4892 94.2329C37.6207 94.2263 37.7456 94.2 37.8705 94.1737C37.9954 94.1408 38.1005 94.108 38.1926 94.0685C38.2846 94.0291 38.3372 93.9699 38.3569 93.8844C38.4358 93.6411 38.4358 93.2532 38.3569 92.7271C38.278 92.2011 38.1663 91.629 38.0348 91.0044C37.9033 90.3863 37.7653 89.7879 37.6207 89.2224C37.476 88.6569 37.3643 88.2098 37.2854 87.881C37.1211 87.2104 36.9041 86.3358 36.6281 85.264C36.352 84.1857 36.0627 83.035 35.7472 81.8054C35.4317 80.5758 35.1096 79.3396 34.7743 78.0903C34.439 76.8409 34.1104 75.71 33.7817 74.6908L34.7283 72.5012L34.7414 72.4946ZM31.4875 85.0733H38.1268V85.8624H31.4875V85.0733ZM35.0175 73.8031C34.7743 74.6382 34.5114 75.5587 34.2287 76.5779C33.946 77.5905 33.6568 78.6557 33.361 79.7604C33.0652 80.8651 32.7891 81.9303 32.5261 82.9561C32.2632 83.9818 32.02 84.9287 31.7965 85.7901C31.573 86.6514 31.402 87.3484 31.2771 87.8745C31.1983 88.1967 31.0799 88.6438 30.9287 89.2158C30.7776 89.7813 30.6329 90.3797 30.5015 90.9978C30.37 91.6159 30.2648 92.1879 30.1991 92.7205C30.1268 93.2466 30.1333 93.6345 30.2122 93.8778C30.2517 94.0225 30.4029 94.1145 30.6724 94.154C30.9353 94.1934 31.172 94.2263 31.3758 94.246L31.3429 94.6998H26.9254L26.8926 94.246C27.1161 94.2263 27.3527 94.1934 27.6091 94.154C27.8655 94.1145 28.0495 94.0225 28.1744 93.8778C28.3585 93.6345 28.5491 93.2466 28.7529 92.7205C28.9567 92.1945 29.1539 91.6225 29.3445 90.9978C29.5351 90.3797 29.7061 89.7813 29.8441 89.2027C29.9887 88.6241 30.1005 88.1835 30.1794 87.8745L34.2287 71.791H35.688C35.4842 72.2973 35.2607 72.968 35.0175 73.8031Z" fill="#F9EFE8"/>
<path d="M43.4843 86.4736L44.214 86.4407C44.2337 87.6966 44.398 88.821 44.7004 89.8073C45.0028 90.7936 45.3972 91.6155 45.8902 92.2731C46.3767 92.9306 46.9354 93.4238 47.5665 93.7526C48.1976 94.0748 48.8549 94.2326 49.5452 94.2128C50.0908 94.1931 50.6035 94.0682 51.0702 93.8315C51.537 93.6013 51.9445 93.2791 52.2863 92.8715C52.6282 92.4638 52.8977 91.9706 53.0949 91.392C53.2855 90.8134 53.3841 90.169 53.3841 89.4588C53.3841 88.4659 53.1606 87.598 52.7136 86.8549C52.2666 86.1119 51.7013 85.4412 51.0242 84.8297C50.3471 84.2182 49.6109 83.6461 48.8286 83.107C48.0464 82.5678 47.3167 82.0023 46.6331 81.4039C45.9494 80.8056 45.3775 80.148 44.9108 79.4247C44.4441 78.7014 44.2008 77.8532 44.1811 76.8801C44.1614 75.9661 44.3126 75.177 44.6347 74.5063C44.9568 73.8356 45.3841 73.2702 45.9165 72.8164C46.4424 72.3627 47.0472 72.0208 47.7309 71.7973C48.4079 71.5737 49.1047 71.4619 49.8147 71.4619C50.3603 71.4619 50.8467 71.5145 51.2609 71.6263C51.675 71.7381 52.0563 71.863 52.4047 72.0077C52.7465 72.1523 53.062 72.297 53.3315 72.4482C53.6076 72.5995 53.8772 72.731 54.1401 72.8296L54.3833 71.8236L55.0538 71.7907C55.0538 71.7907 55.067 72.0142 55.0867 72.4022C55.1064 72.7901 55.1196 73.2702 55.1327 73.8488C55.1459 74.4274 55.1656 75.0455 55.1919 75.7096C55.2247 76.3672 55.2445 76.9853 55.251 77.5507C55.2642 78.1228 55.2708 78.6028 55.2839 78.9973C55.2905 79.3919 55.3102 79.6023 55.3299 79.622L54.6265 79.5891C54.4819 78.3529 54.2781 77.268 54.0021 76.3474C53.726 75.4269 53.3973 74.6444 53.0094 74.0197C52.6216 73.3885 52.1812 72.9217 51.6816 72.6192C51.182 72.3167 50.643 72.1655 50.0513 72.1655C49.5452 72.1655 49.0653 72.2444 48.6183 72.4088C48.1713 72.5732 47.7834 72.8099 47.4482 73.1255C47.1129 73.4411 46.8434 73.8093 46.6396 74.2367C46.4359 74.6641 46.3372 75.1376 46.3372 75.6702C46.3372 76.5053 46.5608 77.2285 47.0078 77.8466C47.4548 78.4647 48.0201 79.0434 48.6972 79.5825C49.3742 80.1217 50.1236 80.6543 50.9322 81.1804C51.7407 81.7064 52.4967 82.3048 53.1869 82.9623C53.8772 83.6198 54.4622 84.376 54.9552 85.2308C55.4417 86.0856 55.7046 87.0982 55.7441 88.2752C55.7835 89.3076 55.6389 90.2413 55.3168 91.0632C54.9947 91.8851 54.5345 92.5887 53.9495 93.1673C53.3578 93.746 52.661 94.1997 51.8459 94.5219C51.0308 94.8441 50.1631 95.0216 49.2296 95.0413C48.2765 95.0611 47.4022 94.9296 46.6133 94.6468C45.8245 94.3641 45.154 94.009 44.6018 93.5816L44.2994 94.6797H43.6289C43.6289 94.6797 43.5961 94.443 43.5961 94.0222C43.5961 93.6013 43.5829 93.095 43.5632 92.4967C43.5435 91.8983 43.5303 91.2539 43.5172 90.5635C43.504 89.8731 43.4975 89.2287 43.4843 88.6303C43.4712 88.0319 43.4712 87.5322 43.4712 87.1377V86.4802L43.4843 86.4736Z" fill="#F9EFE8"/>
<path d="M202.453 0C198.43 0.131508 195.485 2.09098 192.79 5.87842C190.45 9.17927 189.937 12.7431 191.936 15.735C193.612 18.0955 196.846 18.7333 199.423 17.2539C203.597 14.7684 210.546 12.1251 213.727 17.2539C216.797 22.4945 212.031 36.5987 209.467 40.8464C204.899 49.0526 198.273 55.2071 190.049 58.4685C183.357 61.1316 176.869 62.519 170.348 62.5387C160.475 62.5585 151.429 62.4861 141.641 66.1421C134.108 69.0287 128.04 75.4528 127.626 83.488C127.422 87.3938 128.757 90.3133 128.757 90.3133L129.717 89.4782C128.455 79.8321 134.377 74.7427 144.474 73.158C145.204 73.0857 145.921 73.0397 146.637 73.0002C149.648 73.0923 152.389 74.1246 154.729 76.0578C156.34 77.3926 157.654 78.997 158.66 80.7921C159.114 81.785 159.567 82.9028 160.014 84.1718C160.021 84.1981 160.034 84.2244 160.041 84.2507C165.977 105.437 154.203 123.999 137.487 135.868C123.051 118.351 112.901 90.5763 110.371 72.7372C127.291 63.8078 145.907 52.6822 152.244 34.5669C152.258 34.5341 152.264 34.5078 152.271 34.4749C163.742 -9.54749 88.2636 5.42471 96.7107 69.0681C96.9802 70.7974 97.2957 72.6386 97.6573 74.5652C81.7229 81.6337 67.4911 89.8859 57.2823 103.326C35.9444 133.382 55.2839 156.409 89.9202 156.278C103.455 156.173 116.556 152.372 128.435 146C133.674 151.458 139.617 155.574 146.315 157.639C162.381 162.663 181.162 153.253 191.094 139.346C191.449 138.853 191.213 138.156 190.634 137.965C190.286 137.847 189.904 137.965 189.661 138.235C171.334 159.217 153.875 153.937 139.971 138.741C148.695 132.402 156.478 124.683 162.926 116.148C172.064 104.845 181.898 84.5335 173.714 72.9673C175.732 72.5794 177.783 72.027 179.906 71.2709C200.902 64.4127 217.625 42.5955 217.987 21.6199C218.263 11.4741 213.359 -0.190687 202.453 0.0131508V0ZM131.15 18.2994C134.397 15.0511 139.419 11.6253 143.679 14.4988C148.037 17.438 148.458 31.7987 109.897 68.3777C108.773 50.8279 118.522 30.9242 131.143 18.2994H131.15ZM114.367 147.092C75.925 160.802 56.6118 140.194 77.3186 102.096C77.3252 102.077 77.3383 102.064 77.3515 102.044C84.2603 90.8787 88.9604 84.277 98.3935 78.2737C102.509 98.2235 111.127 125.597 125.595 142.818C121.901 144.567 118.121 146 114.367 147.092Z" fill="#F9EFE8"/>
<path d="M157.792 14.7752H159.041C159.41 14.7752 159.6 14.5451 159.6 14.2361C159.6 13.927 159.383 13.6969 159.015 13.6969H157.792V14.7752ZM158.864 15.1369H157.792V16.8333H157.398V13.3418H158.982C159.653 13.3418 160.008 13.6903 160.008 14.2426C160.008 14.7029 159.745 15.0251 159.272 15.1106L159.995 16.8333H159.548L158.871 15.1369H158.864Z" fill="#F9EFE8"/>
<path d="M158.7 18.6876C156.714 18.6876 155.091 17.07 155.091 15.0777C155.091 13.0853 156.708 11.4678 158.7 11.4678C160.691 11.4678 162.309 13.0853 162.309 15.0777C162.309 17.07 160.691 18.6876 158.7 18.6876ZM158.7 11.8623C156.925 11.8623 155.479 13.3089 155.479 15.0842C155.479 16.8596 156.925 18.3062 158.7 18.3062C160.475 18.3062 161.921 16.8596 161.921 15.0842C161.921 13.3089 160.475 11.8623 158.7 11.8623Z" fill="#F9EFE8"/>
</g>
<defs>
<clipPath id="clip0_589_5388">
<rect width="218" height="159" fill="white"/>
</clipPath>
</defs>
</svg>
