<svg width="104" height="128" viewBox="0 0 104 128" fill="none" xmlns="http://www.w3.org/2000/svg">
<g clip-path="url(#clip0_589_4364)">
<path d="M52.3685 122.96C39.8671 122.96 28.114 116.835 19.2753 105.704C10.4647 94.6123 5.59802 79.8625 5.57552 64.1744C5.55301 48.4862 10.369 33.7196 19.1459 22.5997C27.9621 11.4235 39.7208 5.25953 52.2447 5.24268H52.301C64.8024 5.24268 76.5555 11.3673 85.3942 22.4985C94.2048 33.5904 99.0714 48.3401 99.0939 64.0283C99.1164 79.7164 94.3004 94.4831 85.5236 105.603C76.7074 116.779 64.9486 122.943 52.4248 122.96H52.3685ZM52.3066 6.79351H52.2503C40.2103 6.81037 28.8904 12.7665 20.3724 23.5605C11.8093 34.4107 7.11147 48.829 7.13397 64.1688C7.18461 95.7417 27.4726 121.404 52.3741 121.409H52.4304C77.3544 121.37 97.5974 95.6293 97.5467 64.0339C97.5242 48.6941 92.7757 34.2871 84.1846 23.465C75.6496 12.7159 64.3298 6.79351 52.3122 6.79351H52.3066Z" fill="#F9EFE8"/>
<path d="M8.59114 44.2889L8.55176 18.7113L9.10875 18.7563C9.14251 18.7563 12.642 18.981 15.3144 16.666C17.1598 15.0646 18.2007 12.6316 18.4201 9.42881L18.4538 8.94558L36.8065 8.91748V9.95137L19.4215 9.97946C19.1177 13.2385 17.9644 15.7501 15.9952 17.4583C13.6322 19.5036 10.791 19.7846 9.60385 19.8014L9.64324 44.2945H8.60802L8.59114 44.2889Z" fill="#F9EFE8"/>
<path d="M95.0769 44.1538L95.0375 19.6608C93.8504 19.6439 91.0035 19.3742 88.6405 17.3345C86.6658 15.6376 85.5068 13.1259 85.1861 9.8669L67.7955 9.89499V8.8611L86.1425 8.83301L86.1763 9.31624C86.4013 12.519 87.4534 14.9521 89.3044 16.5478C91.9825 18.8572 95.482 18.6269 95.5157 18.6212L96.0727 18.5819V19.1382L96.1121 44.1594H95.0769V44.1538Z" fill="#F9EFE8"/>
<path d="M18.6227 119.33L18.5889 118.847C18.3639 115.644 17.3118 113.211 15.4608 111.615C12.7827 109.306 9.28321 109.536 9.24945 109.542L8.69246 109.581V109.025L8.65308 84.0034H9.68829L9.72768 108.496C10.9148 108.513 13.7617 108.783 16.1246 110.823C18.0994 112.52 19.2584 115.031 19.5791 118.29L36.9697 118.262V119.296L18.6227 119.324V119.33Z" fill="#F9EFE8"/>
<path d="M67.9699 119.257V118.223L85.3548 118.195C85.6586 114.936 86.812 112.424 88.7811 110.716C91.1441 108.671 93.9854 108.39 95.1725 108.373L95.1331 83.8799H96.1683L96.2077 109.457L95.6507 109.412C95.6169 109.412 92.1175 109.188 89.445 111.503C87.5996 113.104 86.5588 115.537 86.3394 118.74L86.3056 119.223L67.953 119.251L67.9699 119.257Z" fill="#F9EFE8"/>
<path d="M94.1486 112.992L94.6437 116.369L96.6466 113.604L95.5157 116.824L98.5707 115.307L96.0727 117.633L99.4878 117.706L96.1909 118.605L99.184 120.257L95.8477 119.521L97.7268 122.37L95.1106 120.173L95.4482 123.572L94.1598 120.409L92.877 123.572L93.2034 120.178L90.5984 122.381L92.4663 119.527L89.1356 120.274L92.1175 118.611L88.8206 117.723L92.2357 117.639L89.7264 115.318L92.7926 116.829L91.6505 113.61L93.6591 116.369L94.1486 112.992Z" fill="#F9EFE8"/>
<path d="M9.21569 113.126L9.71642 116.498L11.7137 113.733L10.5829 116.953L13.6435 115.436L11.1455 117.762L14.5606 117.835L11.2636 118.734L14.2511 120.386L10.9148 119.65L12.7939 122.505L10.1834 120.302L10.521 123.701L9.22694 120.543L7.9498 123.701L8.27612 120.307L5.66557 122.516L7.53909 119.656L4.20276 120.403L7.19027 118.74L3.8877 117.852L7.30279 117.768L4.79914 115.447L7.85978 116.959L6.72329 113.745L8.73184 116.503L9.21569 113.126Z" fill="#F9EFE8"/>
<path d="M93.9797 4.05127L94.4748 7.42265L96.4777 4.65812L95.3469 7.87778L98.4075 6.36066L95.9039 8.68691L99.319 8.75996L96.0277 9.659L99.0152 11.311L95.6788 10.5805L97.558 13.4293L94.9418 11.2323L95.2794 14.6262L93.991 11.4683L92.7082 14.6318L93.0345 11.2323L90.4296 13.4406L92.2975 10.5861L88.9668 11.3278L91.9487 9.66461L88.6517 8.77682L92.0668 8.69253L89.5575 6.3719L92.6238 7.8834L91.4817 4.66936L93.4959 7.42827L93.9797 4.05127Z" fill="#F9EFE8"/>
<path d="M9.04686 4.18066L9.54759 7.55766L11.5505 4.79313L10.414 8.0128L13.4747 6.49006L10.9766 8.81631L14.3917 8.88936L11.0948 9.78839L14.0879 11.4404L10.7516 10.7099L12.6251 13.5587L10.0146 11.3617L10.3521 14.7556L9.06374 11.5977L7.78097 14.7612L8.10728 11.3617L5.50236 13.57L7.37025 10.7155L4.03393 11.4572L7.02143 9.79963L3.72449 8.90621L7.13958 8.82193L4.6303 6.50692L7.69657 8.0128L6.55446 4.79875L8.563 7.55766L9.04686 4.18066Z" fill="#F9EFE8"/>
<path d="M80.0212 28.522C78.3783 28.5782 77.1743 29.3817 76.0716 30.9269C75.1151 32.2755 74.907 33.7308 75.7284 34.9501C76.4148 35.9109 77.7369 36.1694 78.7947 35.5682C80.4994 34.5512 83.3406 33.4667 84.6459 35.557C85.9062 37.6978 83.9651 43.4572 82.9186 45.1991C81.0564 48.5536 78.3446 51.0709 74.9857 52.4082C72.2514 53.4983 69.5958 54.0714 66.929 54.0827C62.8894 54.0939 59.1874 54.0714 55.1872 55.5717C52.104 56.7573 49.6285 59.3814 49.4654 62.6628C49.3866 64.2586 49.9323 65.4498 49.9323 65.4498L50.3262 65.1071C49.8029 61.1682 52.2222 59.0836 56.3518 58.4318C56.65 58.4037 56.9426 58.3812 57.2351 58.3699C58.4673 58.4093 59.5925 58.8251 60.5489 59.6174C61.2072 60.1624 61.7473 60.8198 62.158 61.5503C62.3437 61.9548 62.5294 62.41 62.715 62.9269C62.715 62.9382 62.7206 62.9494 62.7263 62.9606C65.168 71.6138 60.3633 79.1995 53.5331 84.0599C47.6143 76.9125 43.4453 65.5735 42.3989 58.2857C49.3191 54.6277 56.9257 50.0707 59.5081 42.6649C59.5081 42.6537 59.5137 42.6425 59.5194 42.6256C64.1835 24.6337 33.3126 30.7977 36.8121 56.791C36.9246 57.499 37.054 58.2463 37.2059 59.033C30.6908 61.9324 24.8733 65.3094 20.7043 70.8103C11.995 83.099 19.9223 92.4995 34.089 92.4209C39.6252 92.3703 44.9813 90.8082 49.8367 88.201C51.9803 90.4261 54.4164 92.1062 57.1564 92.9434C63.7334 94.9831 71.4075 91.1285 75.464 85.4421C75.6102 85.2398 75.509 84.9533 75.2727 84.8746C75.132 84.8297 74.9745 84.8746 74.8732 84.987C67.3904 93.5728 60.2395 91.4207 54.5458 85.223C58.1128 82.627 61.2916 79.4692 63.9247 75.9798C67.6548 71.3554 71.6663 63.0562 68.3131 58.3362C69.1401 58.1733 69.9784 57.9485 70.8449 57.6395C79.4304 54.8244 86.2606 45.9015 86.3956 37.3325C86.5025 33.1858 84.4884 28.4265 80.0268 28.5164L80.0212 28.522ZM50.8607 36.0402C52.1884 34.7141 54.242 33.3094 55.9861 34.4781C57.7696 35.675 57.9496 41.5411 42.202 56.5101C41.7294 49.3403 45.7071 41.204 50.8663 36.0402H50.8607ZM44.0699 88.6674C28.3503 94.292 20.4343 85.886 28.8848 70.3102C28.8848 70.3046 28.8904 70.2934 28.896 70.2878C31.7148 65.7252 33.6333 63.0224 37.4928 60.567C39.1919 68.7145 42.7308 79.8906 48.6608 86.9143C47.153 87.6279 45.6058 88.2179 44.0699 88.6674Z" fill="#F9EFE8"/>
<path d="M62.0961 32.7645C62.6813 32.7645 63.182 32.5566 63.5927 32.1408C64.0034 31.725 64.2116 31.2249 64.2116 30.6406C64.2116 30.0562 64.0034 29.5617 63.5927 29.1515C63.182 28.7413 62.6813 28.5391 62.0961 28.5391C61.511 28.5391 61.0159 28.747 60.6052 29.1571C60.1945 29.5673 59.9863 30.0674 59.9863 30.6462C59.9863 31.2305 60.1945 31.7306 60.5996 32.1464C61.0103 32.5622 61.511 32.7645 62.0961 32.7645ZM60.8021 29.365C61.1566 29.0054 61.5842 28.8312 62.0849 28.8256C62.5856 28.82 63.0188 28.9998 63.3733 29.3594C63.7277 29.7134 63.9021 30.1405 63.9078 30.6462C63.9134 31.1519 63.7334 31.5845 63.3789 31.9442C63.0245 32.3038 62.5969 32.478 62.0905 32.4836C61.5842 32.4892 61.1566 32.3094 60.8021 31.9498C60.4477 31.5958 60.2733 31.1631 60.2733 30.6574C60.2733 30.1517 60.4477 29.7247 60.8021 29.3707V29.365Z" fill="#F9EFE8"/>
<path d="M61.6461 30.8877H61.9668C62.1862 30.8877 62.3381 30.9101 62.4225 30.9607C62.5688 31.045 62.6419 31.2248 62.6419 31.4889V31.6743L62.6532 31.7474C62.6532 31.7586 62.6532 31.7642 62.6588 31.7754C62.6588 31.7811 62.6588 31.7923 62.6644 31.7979H63.047L63.0301 31.7698C63.0189 31.753 63.0132 31.708 63.0076 31.6518C63.0076 31.59 63.002 31.5338 63.002 31.4776V31.3091C63.002 31.1911 62.957 31.0731 62.8726 30.9495C62.7882 30.8258 62.6532 30.7528 62.4731 30.7247C62.6194 30.7022 62.7263 30.6629 62.8107 30.6123C62.9626 30.5168 63.0357 30.3595 63.0357 30.1516C63.0357 29.8594 62.9176 29.6627 62.6757 29.5672C62.5406 29.511 62.3325 29.4829 62.0399 29.4829H61.2297V31.8035H61.6404V30.8933L61.6461 30.8877ZM61.6461 29.7582H61.9949C62.2199 29.7582 62.3887 29.7863 62.49 29.8425C62.5913 29.8987 62.6475 30.0111 62.6475 30.1797C62.6475 30.3595 62.5688 30.4775 62.4112 30.5449C62.3268 30.5786 62.1918 30.5955 62.023 30.5955H61.6517V29.7582H61.6461Z" fill="#F9EFE8"/>
<path d="M44.9701 106.187C44.8126 106.12 44.6888 106.019 44.5988 105.895C44.5088 105.766 44.4637 105.62 44.4637 105.451H44.9814C44.9926 105.575 45.0432 105.682 45.1333 105.76C45.2233 105.839 45.3471 105.884 45.5046 105.884C45.6734 105.884 45.8028 105.844 45.8928 105.76C45.9828 105.682 46.0335 105.575 46.0335 105.451C46.0335 105.35 46.0053 105.271 45.9491 105.21C45.8928 105.148 45.8197 105.103 45.7353 105.069C45.6509 105.035 45.5327 105.002 45.3808 104.962C45.1895 104.912 45.032 104.861 44.9138 104.811C44.7957 104.76 44.6944 104.676 44.61 104.569C44.5256 104.462 44.4806 104.316 44.4806 104.131C44.4806 103.962 44.52 103.816 44.6044 103.687C44.6888 103.558 44.8069 103.462 44.9589 103.395C45.1108 103.327 45.2852 103.293 45.4877 103.293C45.7746 103.293 46.0053 103.361 46.1854 103.507C46.3654 103.647 46.4667 103.844 46.4892 104.091H45.9547C45.9434 103.985 45.8928 103.895 45.8028 103.816C45.7071 103.743 45.589 103.704 45.4371 103.704C45.2964 103.704 45.1839 103.737 45.0995 103.81C45.0151 103.883 44.9701 103.985 44.9701 104.114C44.9701 104.204 44.9982 104.277 45.0545 104.333C45.1108 104.389 45.1783 104.434 45.2627 104.468C45.3471 104.502 45.4652 104.535 45.6115 104.575C45.8084 104.625 45.9659 104.681 46.0841 104.732C46.2022 104.782 46.3091 104.867 46.3992 104.979C46.4835 105.092 46.5286 105.238 46.5286 105.423C46.5286 105.575 46.4892 105.715 46.4104 105.844C46.3316 105.979 46.2135 106.08 46.0616 106.165C45.9097 106.243 45.7296 106.283 45.5215 106.288C45.3246 106.288 45.1445 106.255 44.987 106.187H44.9701Z" fill="#F9EFE8"/>
<path d="M48.8578 104.62C48.7903 104.754 48.6778 104.861 48.5202 104.945C48.3683 105.03 48.1658 105.069 47.9239 105.069H47.3894V106.26H46.9055V103.327H47.9182C48.1433 103.327 48.3346 103.361 48.4921 103.44C48.6496 103.518 48.7678 103.619 48.8409 103.754C48.9197 103.889 48.9591 104.035 48.9591 104.198C48.9591 104.35 48.9253 104.49 48.8522 104.62H48.8578ZM48.3346 104.552C48.4246 104.468 48.4696 104.35 48.4696 104.198C48.4696 103.878 48.2896 103.715 47.9239 103.72H47.3894V104.681H47.9239C48.1095 104.681 48.2445 104.636 48.3346 104.558V104.552Z" fill="#F9EFE8"/>
<path d="M51.0295 105.653H49.803L49.5948 106.255H49.0941L50.1406 103.316H50.6976L51.7553 106.249H51.2489L51.0351 105.653H51.0295ZM50.8945 105.26L50.4163 103.9L49.938 105.266H50.8945V105.26Z" fill="#F9EFE8"/>
<path d="M52.0703 104.007C52.2054 103.777 52.3854 103.603 52.6161 103.473C52.8467 103.344 53.0943 103.282 53.37 103.282C53.685 103.282 53.9607 103.355 54.2027 103.513C54.4446 103.664 54.6246 103.883 54.7315 104.164H54.152C54.0733 104.013 53.972 103.895 53.837 103.822C53.7019 103.749 53.5444 103.709 53.37 103.709C53.1731 103.709 53.0043 103.754 52.8524 103.839C52.7005 103.928 52.5823 104.052 52.4979 104.215C52.4135 104.378 52.3685 104.569 52.3685 104.782C52.3685 105.002 52.4135 105.187 52.4979 105.35C52.5823 105.513 52.7005 105.637 52.858 105.726C53.0155 105.816 53.1843 105.861 53.3756 105.856C53.5556 105.856 53.7075 105.816 53.8426 105.743C53.9776 105.665 54.0845 105.552 54.1576 105.395H54.7371C54.6302 105.676 54.4502 105.895 54.2083 106.047C53.9664 106.198 53.685 106.277 53.3756 106.277C53.0999 106.277 52.8467 106.215 52.6217 106.086C52.391 105.957 52.211 105.783 52.076 105.552C51.9409 105.322 51.8734 105.069 51.8734 104.782C51.8734 104.496 51.9409 104.237 52.0703 104.013V104.007Z" fill="#F9EFE8"/>
<path d="M55.6092 103.704V104.563H56.6219V104.957H55.6092V105.856H56.7513V106.249H55.131V103.316H56.7457V103.709H55.6036L55.6092 103.704Z" fill="#F9EFE8"/>
<path d="M57.6065 106.17C57.4489 106.103 57.3251 106.002 57.2351 105.878C57.1451 105.755 57.1001 105.603 57.1001 105.434H57.6177C57.629 105.558 57.6796 105.665 57.7696 105.743C57.8596 105.822 57.9834 105.867 58.1409 105.867C58.3097 105.867 58.4391 105.828 58.5291 105.749C58.6192 105.67 58.6698 105.564 58.6698 105.44C58.6698 105.339 58.6417 105.26 58.5854 105.198C58.5291 105.136 58.456 105.092 58.3716 105.058C58.2872 105.024 58.1691 104.99 58.0172 104.951C57.8259 104.9 57.6683 104.85 57.5502 104.799C57.432 104.749 57.3308 104.664 57.2464 104.558C57.162 104.451 57.117 104.305 57.117 104.119C57.117 103.951 57.1564 103.805 57.2408 103.676C57.3251 103.546 57.4433 103.451 57.5952 103.383C57.7471 103.316 57.9215 103.282 58.1241 103.282C58.411 103.282 58.6417 103.35 58.8217 103.496C59.0018 103.636 59.103 103.833 59.1255 104.08H58.591C58.5798 103.973 58.5292 103.883 58.4391 103.805C58.3491 103.726 58.2253 103.692 58.0734 103.692C57.9328 103.692 57.8203 103.726 57.7359 103.799C57.6515 103.872 57.6065 103.973 57.6065 104.103C57.6065 104.193 57.6346 104.266 57.6908 104.322C57.7471 104.378 57.8146 104.423 57.899 104.457C57.9834 104.49 58.1016 104.524 58.2478 104.563C58.4448 104.614 58.6023 104.67 58.7204 104.721C58.8386 104.771 58.9455 104.856 59.0355 104.968C59.1199 105.08 59.1649 105.226 59.1649 105.412C59.1649 105.564 59.1255 105.704 59.0468 105.833C58.968 105.968 58.8498 106.069 58.6979 106.154C58.546 106.232 58.366 106.272 58.1578 106.277C57.9609 106.277 57.7809 106.243 57.6233 106.176L57.6065 106.17Z" fill="#F9EFE8"/>
<path d="M44.5425 21.1499C44.385 21.0824 44.2612 20.9813 44.1712 20.8577C44.0811 20.7284 44.0361 20.5824 44.0361 20.4138H44.5537C44.565 20.5374 44.6156 20.6442 44.7056 20.7228C44.7957 20.8015 44.9194 20.8464 45.077 20.8464C45.2458 20.8464 45.3752 20.8071 45.4652 20.7284C45.5608 20.6498 45.6058 20.543 45.6058 20.4194C45.6058 20.3183 45.5777 20.2396 45.5214 20.1778C45.4652 20.116 45.392 20.071 45.3077 20.0373C45.2233 20.0036 45.1051 19.9699 44.9532 19.9306C44.7619 19.88 44.6044 19.8294 44.4862 19.7788C44.3681 19.7283 44.2668 19.644 44.1824 19.5372C44.098 19.4305 44.053 19.2844 44.053 19.0989C44.053 18.9304 44.0924 18.7843 44.1768 18.655C44.2612 18.5258 44.3793 18.4303 44.5312 18.3629C44.6831 18.2954 44.8576 18.2617 45.0601 18.2617C45.347 18.2617 45.5777 18.3291 45.7577 18.4752C45.9378 18.6157 46.0391 18.8124 46.0616 19.0596H45.5271C45.5158 18.9529 45.4652 18.8629 45.3752 18.7843C45.2851 18.7056 45.1614 18.6719 45.0095 18.6719C44.8688 18.6719 44.7563 18.7056 44.6719 18.7787C44.5875 18.8517 44.5425 18.9529 44.5425 19.0821C44.5425 19.172 44.5706 19.245 44.6269 19.3012C44.6831 19.3574 44.7507 19.4024 44.8351 19.4361C44.9194 19.4698 45.0376 19.5035 45.1839 19.5428C45.3808 19.5934 45.5383 19.6496 45.6565 19.7002C45.7803 19.7507 45.8815 19.835 45.9715 19.9474C46.0559 20.0598 46.1009 20.2059 46.1009 20.3913C46.1009 20.543 46.0616 20.6835 45.9828 20.8127C45.904 20.9476 45.7859 21.0487 45.634 21.133C45.4821 21.2117 45.302 21.251 45.0939 21.2566C44.8969 21.2566 44.7169 21.2229 44.5594 21.1555L44.5425 21.1499Z" fill="#F9EFE8"/>
<path d="M48.3796 18.2896V18.6829H47.5976V21.2227H47.1193V18.6829H46.3317V18.2896H48.3796Z" fill="#F9EFE8"/>
<path d="M49.2854 21.0544C49.0547 20.9251 48.8747 20.7509 48.7397 20.5206C48.6046 20.2902 48.5371 20.0317 48.5371 19.7451C48.5371 19.4586 48.6046 19.2001 48.734 18.9753C48.8691 18.745 49.0491 18.5708 49.2798 18.4415C49.5104 18.3123 49.758 18.2505 50.0337 18.2505C50.3094 18.2505 50.5625 18.3123 50.7932 18.4415C51.0239 18.5708 51.2039 18.745 51.339 18.9753C51.474 19.2057 51.5359 19.4586 51.5359 19.7451C51.5359 20.0317 51.4684 20.2902 51.339 20.5206C51.2095 20.7509 51.0239 20.9307 50.7988 21.0544C50.5682 21.1836 50.315 21.2454 50.0393 21.2454C49.7636 21.2454 49.5161 21.1836 49.2854 21.0544ZM50.5625 20.6947C50.7144 20.6048 50.8326 20.4812 50.917 20.3126C51.0014 20.1497 51.0464 19.9587 51.0464 19.7395C51.0464 19.5204 51.0014 19.3349 50.917 19.172C50.8326 19.009 50.7144 18.8854 50.5569 18.7955C50.405 18.7112 50.2306 18.6663 50.0393 18.6663C49.848 18.6663 49.6736 18.7112 49.5217 18.7955C49.3698 18.8854 49.2516 19.009 49.1672 19.172C49.0829 19.3349 49.0378 19.526 49.0378 19.7395C49.0378 19.9587 49.0829 20.1441 49.1672 20.3126C49.2516 20.4756 49.3698 20.6048 49.5273 20.6891C49.6792 20.779 49.8536 20.824 50.0449 20.8184C50.2418 20.8184 50.4106 20.7734 50.5625 20.6835V20.6947Z" fill="#F9EFE8"/>
<path d="M53.37 21.2117L52.6949 20.0429H52.3292V21.2173H51.8453V18.2842H52.858C53.0831 18.2842 53.2744 18.3235 53.4319 18.4022C53.5895 18.4808 53.7076 18.5876 53.7807 18.7168C53.8595 18.8517 53.8989 18.9978 53.8989 19.1607C53.8989 19.3518 53.8426 19.526 53.7301 19.6833C53.6176 19.8406 53.4488 19.9474 53.2181 20.0036L53.9439 21.2173H53.37V21.2117ZM52.3236 19.6552H52.858C53.0381 19.6552 53.1731 19.6103 53.2631 19.5204C53.3532 19.4304 53.3982 19.3068 53.3982 19.1551C53.3982 19.0034 53.3532 18.8854 53.2631 18.8011C53.1731 18.7168 53.0381 18.6719 52.8524 18.6719H52.3179V19.6552H52.3236Z" fill="#F9EFE8"/>
<path d="M54.8215 18.2783V21.2114H54.3433V18.2783H54.8215Z" fill="#F9EFE8"/>
<path d="M55.7667 18.666V19.5257H56.7794V19.9191H55.7667V20.8181H56.9088V21.2114H55.2885V18.2783H56.9032V18.6716H55.7611L55.7667 18.666Z" fill="#F9EFE8"/>
<path d="M57.7697 21.1328C57.6121 21.0653 57.4884 20.9642 57.3983 20.8406C57.3083 20.717 57.2633 20.5653 57.2633 20.3967H57.7809C57.7922 20.5203 57.8428 20.6271 57.9328 20.7057C58.0228 20.7844 58.1466 20.8294 58.3041 20.8294C58.4729 20.8294 58.6023 20.79 58.6924 20.7114C58.7824 20.6327 58.833 20.5259 58.833 20.4023C58.833 20.3012 58.8049 20.2225 58.7486 20.1607C58.6924 20.0989 58.6192 20.0539 58.5348 20.0202C58.4504 19.9865 58.3323 19.9528 58.1804 19.9135C57.9891 19.8629 57.8316 19.8123 57.7134 19.7617C57.5953 19.7112 57.494 19.6269 57.4096 19.5201C57.3252 19.4134 57.2802 19.2673 57.2802 19.0819C57.2802 18.9133 57.3196 18.7672 57.404 18.638C57.4884 18.5087 57.6065 18.4132 57.7584 18.3458C57.9103 18.2783 58.0847 18.2446 58.2873 18.2446C58.5742 18.2446 58.8049 18.3121 58.9849 18.4581C59.165 18.5986 59.2662 18.7953 59.2887 19.0425H58.7542C58.743 18.9358 58.6924 18.8459 58.6023 18.7672C58.5123 18.6885 58.3885 18.6548 58.2366 18.6548C58.096 18.6548 57.9835 18.6885 57.8991 18.7616C57.8147 18.8346 57.7697 18.9358 57.7697 19.065C57.7697 19.1549 57.7978 19.2279 57.8541 19.2841C57.9103 19.3403 57.9778 19.3853 58.0622 19.419C58.1466 19.4527 58.2648 19.4864 58.411 19.5258C58.608 19.5763 58.7655 19.6325 58.8836 19.6831C59.0074 19.7337 59.1087 19.8179 59.1987 19.9303C59.2887 20.0427 59.3281 20.1888 59.3281 20.3742C59.3281 20.5259 59.2887 20.6664 59.21 20.7956C59.1312 20.9305 59.0131 21.0316 58.8611 21.1159C58.7092 21.1946 58.5292 21.2339 58.321 21.2395C58.1241 21.2395 57.9441 21.2058 57.7865 21.1384L57.7697 21.1328Z" fill="#F9EFE8"/>
<path d="M10.5252 34.905L9.09619 34.9072L9.10142 38.2337L10.5305 38.2314L10.5252 34.905Z" fill="#F9EFE8"/>
<path d="M10.5169 29.6628L9.08789 29.665L9.09312 32.9915L10.5222 32.9892L10.5169 29.6628Z" fill="#F9EFE8"/>
<path d="M10.5088 24.4148L9.07971 24.417L9.08494 27.7434L10.514 27.7412L10.5088 24.4148Z" fill="#F9EFE8"/>
<path d="M10.5012 19.6384L9.07214 19.6406L9.07738 22.967L10.5064 22.9648L10.5012 19.6384Z" fill="#F9EFE8"/>
<path d="M24.7758 10.9477L24.7736 9.52051L21.4429 9.52576L21.4451 10.953L24.7758 10.9477Z" fill="#F9EFE8"/>
<path d="M30.0332 10.9424L30.031 9.51514L26.7003 9.52039L26.7025 10.9476L30.0332 10.9424Z" fill="#F9EFE8"/>
<path d="M35.2851 10.9365L35.2828 9.50928L31.9521 9.51453L31.9544 10.9417L35.2851 10.9365Z" fill="#F9EFE8"/>
<path d="M15.1101 19.6193L14.5702 18.2979L11.4864 19.5547L12.0263 20.8761L15.1101 19.6193Z" fill="#F9EFE8"/>
<path d="M20.5058 10.9172L19.1261 10.5454L18.2584 13.757L19.6381 14.1288L20.5058 10.9172Z" fill="#F9EFE8"/>
<path d="M18.9536 15.7142L17.9049 14.7446L15.6423 17.1857L16.691 18.1553L18.9536 15.7142Z" fill="#F9EFE8"/>
<path d="M10.612 90.1398L9.18298 90.1421L9.18814 93.4685L10.6172 93.4662L10.612 90.1398Z" fill="#F9EFE8"/>
<path d="M10.6203 95.3874L9.19128 95.3896L9.19652 98.7161L10.6256 98.7138L10.6203 95.3874Z" fill="#F9EFE8"/>
<path d="M10.6285 100.635L9.19946 100.638L9.20469 103.964L10.6337 103.962L10.6285 100.635Z" fill="#F9EFE8"/>
<path d="M10.6417 105.406L9.21265 105.408L9.21788 108.735L10.6469 108.732L10.6417 105.406Z" fill="#F9EFE8"/>
<path d="M21.6173 117.377L21.6195 118.804L24.9502 118.799L24.948 117.372L21.6173 117.377Z" fill="#F9EFE8"/>
<path d="M26.8638 117.372L26.8661 118.799L30.1968 118.794L30.1945 117.366L26.8638 117.372Z" fill="#F9EFE8"/>
<path d="M32.1218 117.36L32.124 118.788L35.4547 118.782L35.4525 117.355L32.1218 117.36Z" fill="#F9EFE8"/>
<path d="M12.161 107.502L11.625 108.825L14.7125 110.072L15.2485 108.749L12.161 107.502Z" fill="#F9EFE8"/>
<path d="M19.7969 114.216L18.4183 114.592L19.2961 117.801L20.6746 117.425L19.7969 114.216Z" fill="#F9EFE8"/>
<path d="M16.8367 110.2L15.791 111.173L18.0613 113.607L19.1069 112.634L16.8367 110.2Z" fill="#F9EFE8"/>
<path d="M94.1559 38.1058L95.585 38.1035L95.5797 34.7771L94.1507 34.7793L94.1559 38.1058Z" fill="#F9EFE8"/>
<path d="M94.1472 32.8577L95.5763 32.8555L95.5711 29.529L94.142 29.5313L94.1472 32.8577Z" fill="#F9EFE8"/>
<path d="M94.1443 27.6097L95.5734 27.6074L95.5681 24.281L94.1391 24.2832L94.1443 27.6097Z" fill="#F9EFE8"/>
<path d="M94.1349 22.8392L95.564 22.8369L95.5587 19.5105L94.1297 19.5127L94.1349 22.8392Z" fill="#F9EFE8"/>
<path d="M83.1547 10.8632L83.1525 9.43604L79.8218 9.44128L79.824 10.8685L83.1547 10.8632Z" fill="#F9EFE8"/>
<path d="M77.9029 10.8691L77.9006 9.44189L74.5699 9.44714L74.5722 10.8744L77.9029 10.8691Z" fill="#F9EFE8"/>
<path d="M72.651 10.8745L72.6488 9.44727L69.3181 9.45251L69.3203 10.8797L72.651 10.8745Z" fill="#F9EFE8"/>
<path d="M92.6007 20.7444L93.1367 19.4214L90.0492 18.1737L89.5132 19.4967L92.6007 20.7444Z" fill="#F9EFE8"/>
<path d="M84.9779 14.0304L86.3564 13.6543L85.4787 10.4455L84.1002 10.8216L84.9779 14.0304Z" fill="#F9EFE8"/>
<path d="M87.9324 18.0421L88.978 17.0693L86.7078 14.6354L85.6621 15.6082L87.9324 18.0421Z" fill="#F9EFE8"/>
<path d="M94.2434 93.3406L95.6725 93.3384L95.6673 90.012L94.2382 90.0142L94.2434 93.3406Z" fill="#F9EFE8"/>
<path d="M94.2465 98.5828L95.6755 98.5806L95.6703 95.2541L94.2413 95.2564L94.2465 98.5828Z" fill="#F9EFE8"/>
<path d="M94.255 103.831L95.6841 103.829L95.6789 100.502L94.2498 100.504L94.255 103.831Z" fill="#F9EFE8"/>
<path d="M94.2644 108.607L95.6935 108.605L95.6882 105.279L94.2592 105.281L94.2644 108.607Z" fill="#F9EFE8"/>
<path d="M79.9874 117.287L79.9896 118.714L83.3203 118.709L83.3181 117.282L79.9874 117.287Z" fill="#F9EFE8"/>
<path d="M74.7296 117.293L74.7318 118.72L78.0625 118.715L78.0603 117.287L74.7296 117.293Z" fill="#F9EFE8"/>
<path d="M69.4829 117.304L69.4851 118.731L72.8158 118.726L72.8136 117.299L69.4829 117.304Z" fill="#F9EFE8"/>
<path d="M89.6566 108.62L90.1965 109.942L93.2803 108.685L92.7404 107.364L89.6566 108.62Z" fill="#F9EFE8"/>
<path d="M84.2631 117.326L85.6428 117.698L86.5105 114.487L85.1308 114.115L84.2631 117.326Z" fill="#F9EFE8"/>
<path d="M85.806 112.525L86.8547 113.495L89.1173 111.054L88.0686 110.084L85.806 112.525Z" fill="#F9EFE8"/>
<path d="M52.5937 128C48.6723 128 44.4357 127.46 39.8166 126.376C31.7037 123.982 23.8777 123.583 17.1769 125.219C16.7437 125.331 16.3161 125.449 15.8885 125.567C11.6238 126.736 7.60112 127.843 3.45462 124.544C-0.720006 121.51 1.01286 115.621 2.15497 111.727C2.91451 109.041 3.85408 100.933 3.88784 96.7697C3.93847 94.1681 3.88784 92.2183 3.7078 89.8303C3.45462 86.6162 2.77948 83.5145 2.05933 80.2274C0.810316 74.513 -0.483707 68.6018 0.185809 61.0949C0.3771 57.0268 0.973475 53.9307 1.60361 50.6548C1.97494 48.7219 2.36314 46.7216 2.68946 44.4009C2.72884 43.9683 2.76823 43.5019 2.81324 43.0074C3.38711 36.6749 4.25917 27.1058 3.15643 20.1439V20.1102C2.85262 18.0761 2.34064 16.1375 1.80615 14.081C1.64299 13.4573 1.47983 12.8336 1.3223 12.2043C0.838446 10.2152 0.815942 8.62499 1.25478 7.34387C2.13809 4.20849 5.11997 1.70805 8.3269 1.40462C10.0316 1.15177 11.3538 1.57881 12.8785 2.07328C13.3736 2.23061 13.8856 2.39918 14.4369 2.55089C17.3625 3.37688 22.2011 4.25344 26.1957 4.02868C30.404 3.82078 34.5393 2.89927 38.5395 2.01147C45.1221 0.55054 51.9298 -0.960962 58.9794 0.792155C62.7883 1.46081 67.053 2.57899 69.2472 3.18022C71.2333 3.73087 73.2305 3.69154 75.3404 3.64659C76.038 3.63535 76.7525 3.61849 77.4783 3.62411C81.2029 3.52859 84.3479 3.19145 87.0935 2.59022C87.7911 2.44413 88.455 2.28118 89.0964 2.12947C92.0557 1.42148 94.6157 0.809012 97.5413 1.94404C99.7242 2.75317 101.322 4.37144 102.155 6.61902C102.886 8.59128 102.993 10.9681 102.447 13.3056L102.228 14.317C101.553 17.458 100.849 20.7058 100.608 23.8299C99.7749 38.1639 101.153 45.6427 102.262 50.0255C104.793 60.0441 104.551 69.1862 101.418 81.5872C100.99 83.2898 100.923 84.526 100.838 86.0993C100.81 86.5713 100.788 87.077 100.748 87.6332V87.7512C100.456 92.4543 100.135 97.7867 100.371 102.625C100.467 105.041 101.136 107.395 101.783 109.671C102.762 113.11 103.769 116.666 102.768 120.42C101.851 124.6 97.26 127.584 92.759 126.921C91.5044 126.786 90.3454 126.427 89.2202 126.078C87.8024 125.64 86.4633 125.224 84.9218 125.213C80.0101 124.685 75.0928 124.522 71.3908 124.763C68.482 124.848 65.3764 125.775 62.6364 126.595C62.0963 126.758 61.5675 126.915 61.0555 127.062C58.3943 127.691 55.5812 128.011 52.5825 128.011L52.5937 128ZM25.7849 123.713C30.2915 123.713 35.0681 124.437 39.946 125.876C48.0084 127.77 54.8779 127.989 60.9317 126.556C61.4324 126.41 61.9557 126.252 62.4958 126.095C65.2639 125.269 68.4033 124.331 71.3739 124.246C75.0928 123.999 80.0495 124.162 84.9611 124.696C86.5533 124.707 87.988 125.151 89.3833 125.584C90.486 125.926 91.6225 126.28 92.8378 126.41C97.0968 127.039 101.412 124.241 102.279 120.302C103.241 116.672 102.295 113.34 101.294 109.811C100.641 107.508 99.9662 105.125 99.8649 102.647C99.6286 97.7811 99.9493 92.4375 100.236 87.7175V87.5995C100.281 87.0433 100.309 86.5432 100.337 86.0712C100.422 84.4698 100.489 83.2111 100.934 81.458C104.045 69.1525 104.287 60.0779 101.778 50.1491C100.664 45.7326 99.2741 38.1976 100.107 23.7906C100.354 20.6271 101.058 17.3625 101.738 14.2046L101.958 13.1876C102.926 9.02956 101.879 4.09611 97.3725 2.42165C94.5932 1.34281 92.2245 1.91033 89.2314 2.62956C88.5844 2.78689 87.9205 2.94422 87.2172 3.09593C84.4435 3.70278 81.2591 4.03992 77.4952 4.14106C76.7694 4.13544 76.0549 4.14668 75.3629 4.16353C73.208 4.20849 71.177 4.24782 69.1178 3.6803C66.9292 3.07907 62.6871 1.96652 58.8782 1.29786C51.9298 -0.42716 45.4822 1.00006 38.6576 2.51718C34.6406 3.41059 30.4828 4.3321 26.2294 4.54562C22.1673 4.776 17.2669 3.88259 14.3019 3.05098C13.7393 2.89927 13.2217 2.7307 12.7209 2.56775C11.2525 2.09576 9.99225 1.68557 8.38878 1.92157C5.37315 2.20813 2.58256 4.55124 1.73864 7.5012C1.33355 8.69804 1.35606 10.1927 1.8174 12.0807C1.97494 12.71 2.13809 13.3337 2.30125 13.9518C2.81886 15.9296 3.35335 17.9749 3.65716 20.0315V20.0596C4.77677 27.0833 3.89909 36.6917 3.32522 43.0524C3.28021 43.5469 3.2352 44.0132 3.19582 44.4571C2.86387 46.8059 2.48129 48.8118 2.10434 50.7504C1.47421 54.0094 0.883456 57.0829 0.697792 61.1286C0.0339024 68.5625 1.31667 74.4343 2.56006 80.1151C3.28021 83.419 3.9666 86.5375 4.21978 89.7853C4.39982 92.1958 4.45046 94.1512 4.39982 96.7697C4.36606 101.046 3.43212 109.086 2.65008 111.862C1.47983 115.846 -0.129257 121.302 3.76406 124.128C7.71364 127.275 11.4382 126.247 15.7478 125.067C16.1754 124.949 16.6086 124.831 17.0475 124.713C19.7931 124.044 22.7299 123.707 25.7849 123.707V123.713Z" fill="#F9EFE8"/>
</g>
<defs>
<clipPath id="clip0_589_4364">
<rect width="104" height="128" fill="white"/>
</clipPath>
</defs>
</svg>
