<svg width="48" height="48" viewBox="0 0 48 48" fill="none" xmlns="http://www.w3.org/2000/svg">
<path d="M23.9988 47.9705C17.586 47.9705 11.5614 45.4784 7.02994 40.9492C2.49845 36.4201 0.00500488 30.3986 0.00500488 23.9892C0.00500488 17.5797 2.49845 11.5583 7.02994 7.02911C11.5614 2.49996 17.586 0.0078125 23.9988 0.0078125C30.4115 0.0078125 36.4361 2.49996 40.9676 7.02911C45.4991 11.5583 47.9926 17.5797 47.9926 23.9892C47.9926 30.3986 45.4991 36.4201 40.9676 40.9492C36.4361 45.4784 30.4115 47.9705 23.9988 47.9705ZM23.9988 1.96273C11.8526 1.96273 1.96841 11.8418 1.96841 23.9817C1.96841 36.1216 11.8526 46.0007 23.9988 46.0007C36.145 46.0007 46.0292 36.1216 46.0292 23.9817C46.0292 11.8418 36.145 1.96273 23.9988 1.96273Z" fill="#F9EFE8"/>
<path d="M30.3593 26.9816C29.8143 27.5337 27.9629 30.0632 27.9629 30.0632C27.9629 30.0632 25.7382 30.5034 21.5725 26.9443C17.4068 23.3851 17.5039 21.1168 17.5039 21.1168C17.5039 21.1168 19.7211 18.9007 20.184 18.274C20.6468 17.6547 17.2724 12.3122 16.6006 12.163C15.9287 12.0138 12.3528 12.5883 11.442 15.7147C10.5312 18.8336 12.196 24.7954 18.6759 30.3393C25.1559 35.8832 31.3074 36.5995 34.2488 35.2191C37.1976 33.8387 37.2125 30.2199 36.9587 29.5782C36.7049 28.9365 30.9117 26.4294 30.3668 26.9816H30.3593Z" fill="#F9EFE8"/>
</svg>
